<svg id="hb1" xmlns="http://www.w3.org/2000/svg" xmlns:xlink="http://www.w3.org/1999/xlink" width="85.547" height="85.547" viewBox="0 0 85.547 85.547">
  <defs>
    <linearGradient id="linear-gradient" x1="0.755" y1="0.919" x2="0.233" y2="0.098" gradientUnits="objectBoundingBox">
      <stop offset="0" stop-color="#ffcd68"/>
      <stop offset="0.498" stop-color="#ffd684"/>
      <stop offset="1" stop-color="#ffe9be"/>
    </linearGradient>
    <filter id="Union_5" x="18.774" y="20.773" width="48.17" height="42.877" filterUnits="userSpaceOnUse">
      <feOffset dy="1" input="SourceAlpha"/>
      <feGaussianBlur stdDeviation="1" result="blur"/>
      <feFlood flood-opacity="0.161"/>
      <feComposite operator="in" in2="blur"/>
      <feComposite in="SourceGraphic"/>
    </filter>
  </defs>
  <circle id="Ellipse_21" data-name="Ellipse 21" cx="42.774" cy="42.774" r="42.774" fill="url(#linear-gradient)"/>
  <g id="high-five" transform="translate(21.774 22.773)">
    <g transform="matrix(1, 0, 0, 1, -21.77, -22.77)" filter="url(#Union_5)">
      <path id="Union_5-2" data-name="Union 5" d="M677.348-6321.123a1.235,1.235,0,0,1-1.235-1.235V-6333.7l-6.287-5.388a1.448,1.448,0,0,1-.506-1.1v-4.744a1.442,1.442,0,0,1,2.339-1.133l.037.03,5.341,4.58a2.737,2.737,0,0,0,1.781.657h3.825a5.212,5.212,0,0,1-5.207-5.205,5.212,5.212,0,0,1,5.207-5.205,5.211,5.211,0,0,1,5.2,5.205,5.211,5.211,0,0,1-5.2,5.205,6.524,6.524,0,0,1,6.528,6.528v11.912a1.235,1.235,0,0,1-1.235,1.235Zm-29.113,0a1.234,1.234,0,0,1-1.235-1.235v-11.912a6.524,6.524,0,0,1,6.526-6.528h0a5.21,5.21,0,0,1-5.205-5.205,5.21,5.21,0,0,1,5.205-5.205,5.21,5.21,0,0,1,5.2,5.205,5.21,5.21,0,0,1-5.2,5.205h3.825a2.733,2.733,0,0,0,1.779-.657l5.342-4.58.037-.03a1.442,1.442,0,0,1,2.339,1.133v4.744a1.448,1.448,0,0,1-.506,1.1l-6.287,5.388v11.342a1.236,1.236,0,0,1-1.237,1.235Zm24.27-28.152a1.232,1.232,0,0,1,0-1.746l2.646-2.647a1.234,1.234,0,0,1,1.747,0,1.233,1.233,0,0,1,0,1.747l-2.646,2.646a1.229,1.229,0,0,1-.874.362A1.226,1.226,0,0,1,672.5-6349.275Zm-10.587,0-2.647-2.646a1.236,1.236,0,0,1,0-1.747,1.234,1.234,0,0,1,1.747,0l2.647,2.647a1.235,1.235,0,0,1,0,1.746,1.226,1.226,0,0,1-.873.362A1.227,1.227,0,0,1,661.918-6349.275Zm4.932-2.2v-5.294a1.235,1.235,0,0,1,1.235-1.235,1.235,1.235,0,0,1,1.235,1.235v5.294a1.235,1.235,0,0,1-1.235,1.235A1.235,1.235,0,0,1,666.85-6351.471Z" transform="translate(-625.23 6380.77)" fill="#fff"/>
    </g>
  </g>
</svg>
