<svg id="sw1" xmlns="http://www.w3.org/2000/svg" xmlns:xlink="http://www.w3.org/1999/xlink" width="85.547" height="85.547" viewBox="0 0 85.547 85.547">
  <defs>
    <linearGradient id="linear-gradient" x1="0.755" y1="0.919" x2="0.233" y2="0.098" gradientUnits="objectBoundingBox">
      <stop offset="0" stop-color="#6cbaf7"/>
      <stop offset="1" stop-color="#c8e7ff"/>
    </linearGradient>
    <filter id="Path_917" x="50.958" y="14.819" width="11.723" height="24.175" filterUnits="userSpaceOnUse">
      <feOffset dy="1" input="SourceAlpha"/>
      <feGaussianBlur stdDeviation="1" result="blur"/>
      <feFlood flood-opacity="0.161"/>
      <feComposite operator="in" in2="blur"/>
      <feComposite in="SourceGraphic"/>
    </filter>
    <filter id="Path_918" x="17.91" y="25.558" width="45.728" height="37.432" filterUnits="userSpaceOnUse">
      <feOffset dy="1" input="SourceAlpha"/>
      <feGaussianBlur stdDeviation="1" result="blur-2"/>
      <feFlood flood-opacity="0.161"/>
      <feComposite operator="in" in2="blur-2"/>
      <feComposite in="SourceGraphic"/>
    </filter>
  </defs>
  <circle id="Ellipse_21" data-name="Ellipse 21" cx="42.774" cy="42.774" r="42.774" fill="url(#linear-gradient)"/>
  <g id="Group_169" data-name="Group 169" transform="translate(20.91 16.819)">
    <g transform="matrix(1, 0, 0, 1, -20.91, -16.82)" filter="url(#Path_917)">
      <path id="Path_917-2" data-name="Path 917" d="M32.167,22.679h2.111v11.5H32.167Zm3.866-3.754A2.862,2.862,0,1,1,33.171,16,2.9,2.9,0,0,1,36.033,18.925Z" transform="translate(23.65 0.82)" fill="#fff"/>
    </g>
    <g transform="matrix(1, 0, 0, 1, -20.91, -16.82)" filter="url(#Path_918)">
      <path id="Path_918-2" data-name="Path 918" d="M21.221,51.757H52.507a4.264,4.264,0,0,0,4.221-4.31V31.461a4.264,4.264,0,0,0-4.221-4.31H21.221A4.264,4.264,0,0,0,17,31.461V47.447a4.263,4.263,0,0,0,4.221,4.31Zm23.2-16.09a3.665,3.665,0,0,1,3.6-3.635h.042a3.641,3.641,0,0,1,3.571,3.633V37.8a1.1,1.1,0,0,1-1.11,1.058H45.554A1.122,1.122,0,0,1,44.42,37.8V35.665ZM31.9,43.1a.985.985,0,0,1,.919-1.05h8.124a.965.965,0,0,1,.889,1.05v.045c-.015,3.506-2.21,6.342-4.916,6.354h-.072c-2.7,0-4.944-2.865-4.944-6.356V43.1Zm-9.977-7.434a3.669,3.669,0,0,1,3.6-3.633h.042a3.635,3.635,0,0,1,3.563,3.633V37.8a1.093,1.093,0,0,1-1.1,1.058H23.063A1.129,1.129,0,0,1,21.921,37.8ZM44.072,20.618a.3.3,0,0,0-.251-.293H29.763c-.1,0-.107.124-.107.293V25H44.072Z" transform="translate(3.91 7.23)" fill="#fff"/>
    </g>
  </g>
</svg>
