<svg xmlns="http://www.w3.org/2000/svg" width="613" height="553.164" viewBox="0 0 613 553.164">
  <g id="about" transform="translate(64)">
    <g id="Group_347" data-name="Group 347" transform="translate(29.438)">
      <ellipse id="Ellipse_258" data-name="Ellipse 258" cx="306.5" cy="61.082" rx="306.5" ry="61.082" transform="translate(-93.438 431)" fill="#fff" opacity="0.32"/>
      <ellipse id="Ellipse_259" data-name="Ellipse 259" cx="254.5" cy="45.407" rx="254.5" ry="45.407" transform="translate(-41.438 446.675)" fill="#fff" opacity="0.32"/>
      <ellipse id="Ellipse_260" data-name="Ellipse 260" cx="211.5" cy="26.105" rx="211.5" ry="26.105" transform="translate(1.562 465.977)" fill="#fff" opacity="0.32"/>
      <path id="Path_2070" data-name="Path 2070" d="M352.948,195.151c-.469-25.277,20.194-51.832,49.573-55.44,22.152-2.719,43.088,10.862,51.518,30.476a15.293,15.293,0,0,0,21.542,7.4,196.682,196.682,0,0,1,103.851-26.338c102.692,3.041,183.515,101.534,167.345,202.989-15.419,96.733-106.733,171.226-202.988,167.345C441.132,517.449,362.806,420.428,376.444,318.6a175.165,175.165,0,0,1,17.709-55.9c4.094-8.068-.009-17.753-8.439-21.025C367.147,234.459,353.342,216.206,352.948,195.151Z" transform="translate(-352.94 -74.709)" fill="#fff" opacity="0.42"/>
      <path id="Path_2071" data-name="Path 2071" d="M438.051,236.673c-1,15.048,12.254,28.239,27.306,27.307,14.349-.893,26.52-13.187,27.306-27.307.836-15.057-12.236-27.868-27.306-27.307C452.236,209.853,439.067,221.334,438.051,236.673Z" transform="translate(-61.989 164.684)" fill="#f5f4f9"/>
      <path id="Path_2072" data-name="Path 2072" d="M373.542,152.059c-1,15.052,12.254,28.244,27.307,27.306,14.349-.888,26.52-13.182,27.306-27.306.84-15.057-12.236-27.864-27.306-27.3C387.728,125.243,374.559,136.724,373.542,152.059Z" transform="translate(-282.649 -124.739)" fill="#fff" opacity="0.5"/>
    </g>
    <path id="Path_2073" data-name="Path 2073" d="M374.132,438.83q6.651-15.934,13.337-31.042c4.978-5.146,24.787-24.941,48.146-38.977,14.328-8.607,26.409-12.122,36.117-14.946,13.134-3.824,22.625-6.582,28.558-18.925,2.109-4.377,2.4-7.5.893-9.535-2.7-3.638-10.128-2.493-18.01-1.286-6.6,1.012-14.071,2.148-15.879-.473-1.083-1.565-.256-4.841,2.378-9.465,13.156-23.138,33.761-40.524,50.316-54.494,14.336-12.091,25.653-21.644,26.139-30.206.265-4.752-.712-7.745-2.98-9.155-4.571-2.847-13.169,2.025-22.258,7.188-7.228,4.1-14.708,8.346-19.9,8.585-2.042.08-4.615-.106-5.278-1.556-.778-1.711.049-6.812,14.3-21.741l3.152-3.28c11.525-11.94,27.307-28.292,25.658-40.206-.535-3.872-2.851-7.033-6.883-9.385-5.964-3.479-11.9-4.279-17.652-2.387C503.3,161.167,493.07,174.341,483,197.81c-1.039,2.418-2.091,4.947-3.161,7.5-5.336,12.807-11.98,28.739-16.463,28.743-1.446,0-2.644-2.131-3.395-3.921-2.02-4.814-3.577-11.671-5.088-18.3-2.617-11.507-4.88-21.44-9.531-22.479-1.954-.442-4,.7-6.158,3.479-7.8,10.008-6.994,29.309-6.211,47.973.69,16.591,1.41,33.743-3.97,43.641-2.2,4.045-3.125,4.085-3.134,4.085-1.057-.358-2.011-6.4-2.639-10.4-1.414-8.939-3.01-19.075-8.58-21.7-2.321-1.1-5.075-.721-8.156,1.105-9.023,5.336-9.407,15.5-10.106,33.955a403.836,403.836,0,0,1-4.288,49.242c-5.017,32.651-7.758,67.15-7.785,67.5l-.115,1.428q-6.068,13.826-12.126,28.319Zm15.857-36.7c59.8-134.1,118.554-217.833,119.19-218.735l-1.8-1.278c-.641.911-60.179,85.77-120.424,221.41.937-10.658,3.457-37.107,7.352-62.451a405.008,405.008,0,0,0,4.315-49.494c.69-18.253,1.035-27.417,9.014-32.134,2.458-1.454,4.452-1.79,6.1-1.008,4.509,2.122,6.074,12.055,7.338,20.043,1.118,7.1,1.857,11.781,4.452,12.232,1.684.274,3.307-1.273,5.451-5.212,5.667-10.433,4.938-27.894,4.231-44.781-.765-18.266-1.556-37.16,5.752-46.528,1.074-1.379,2.617-2.957,3.93-2.675,3.289.729,5.716,11.4,7.86,20.808,1.529,6.719,3.112,13.673,5.2,18.668,1.49,3.55,3.267,5.274,5.433,5.274h0c5.539,0,10.924-11.923,18.5-30.1,1.066-2.546,2.118-5.071,3.148-7.48,9.672-22.541,19.752-35.675,29.959-39.043,5.185-1.711,10.366-.995,15.839,2.2,3.466,2.02,5.367,4.567,5.809,7.78,1.5,10.848-13.855,26.754-25.061,38.367l-3.161,3.285c-11.878,12.444-16.555,20.132-14.712,24.186.942,2.069,3.488,3.041,7.383,2.847,5.729-.261,13.439-4.637,20.9-8.872,8.125-4.611,16.533-9.389,20-7.228,1.5.928,2.149,3.338,1.936,7.153-.429,7.612-11.423,16.891-25.352,28.642-16.688,14.084-37.461,31.608-50.82,55.09-3.209,5.645-3.934,9.4-2.277,11.808,2.6,3.771,10.114,2.621,18.045,1.406a75.617,75.617,0,0,1,10.512-1.141c2.533,0,4.522.4,5.375,1.561.964,1.3.592,3.74-1.105,7.263-5.508,11.45-14.128,13.961-27.179,17.758-9.831,2.86-22.068,6.419-36.643,15.176C415.151,378.527,398.242,394.031,389.989,402.125Z" transform="translate(-257.984 -15.943)" fill="#e8e7f7"/>
    <path id="Path_2074" data-name="Path 2074" d="M434.674,451.744c.009.04.049.062.062.1a1.028,1.028,0,0,0,.172.261,1.127,1.127,0,0,0,.31.287c.044.022.057.075.1.093a1.033,1.033,0,0,0,1.03-.124,1.272,1.272,0,0,0,.155-.155c.062-.066.146-.111.195-.195,19.172-33.487,40.993-63.91,62.1-93.338,55.829-77.844,99.929-139.331,39.185-187.936l-.044-.013-.026-.04a1.082,1.082,0,0,0-.809-.159l-.035-.009c-.057.013-.08.08-.133.1a1.032,1.032,0,0,0-.482.261c-26.1,30.361-62.137,78.719-85.624,136.683C428.989,361.465,423.551,409.978,434.674,451.744Zm96.972-271.739c-.416.813-.827,1.658-1.242,2.476-1.012,1.985-2.02,4-3.024,6.012q-1.863,3.733-3.718,7.528-1.525,3.13-3.028,6.313c-1.207,2.538-2.414,5.088-3.607,7.674-1.008,2.171-2.016,4.368-3.015,6.574q-1.764,3.9-3.519,7.86-1.5,3.4-2.993,6.834-1.731,4.005-3.448,8.081-1.485,3.514-2.962,7.077c-1.132,2.745-2.263,5.53-3.391,8.329-.977,2.423-1.954,4.849-2.922,7.312-1.123,2.842-2.241,5.734-3.355,8.629-.959,2.489-1.919,4.978-2.874,7.5-1.114,2.962-2.224,5.972-3.333,8.987-.942,2.551-1.883,5.093-2.82,7.688-1.11,3.077-2.215,6.22-3.32,9.354-.919,2.613-1.848,5.208-2.763,7.86-1.123,3.249-2.237,6.569-3.355,9.876-.884,2.621-1.777,5.216-2.657,7.882-1.176,3.532-2.339,7.157-3.506,10.76-.813,2.529-1.636,5.013-2.453,7.573-1.326,4.169-2.644,8.439-3.961,12.7-.65,2.091-1.3,4.129-1.945,6.242q-2.925,9.549-5.818,19.407c-.637,2.162-1.269,4.4-1.905,6.587-1.3,4.5-2.608,8.978-3.908,13.571-.844,2.975-1.684,6.043-2.529,9.067-1.087,3.895-2.171,7.767-3.258,11.732-.906,3.32-1.808,6.724-2.714,10.092-.844,3.152-1.693,6.246-2.537,9.443C415.241,360.188,470.345,254.052,531.646,180.005ZM497,357.385c-19.624,27.359-39.866,55.59-58.053,86.367.725-2.728,1.45-5.451,2.175-8.143.809-2.993,1.614-5.994,2.427-8.952,1.145-4.191,2.294-8.311,3.444-12.422.809-2.891,1.618-5.791,2.427-8.642,1.149-4.049,2.3-8.024,3.457-11.993.822-2.825,1.64-5.663,2.462-8.448,1.149-3.89,2.3-7.71,3.457-11.529.827-2.741,1.653-5.5,2.484-8.214,1.171-3.811,2.347-7.546,3.523-11.282.818-2.6,1.636-5.225,2.454-7.794,1.2-3.735,2.4-7.4,3.6-11.065.809-2.476,1.622-4.982,2.436-7.427,1.216-3.638,2.436-7.2,3.66-10.773.813-2.378,1.622-4.788,2.44-7.135,1.238-3.559,2.489-7.038,3.735-10.526.809-2.259,1.614-4.558,2.427-6.79,1.278-3.514,2.568-6.949,3.855-10.4.791-2.117,1.578-4.27,2.374-6.361,1.361-3.576,2.736-7.073,4.111-10.579.729-1.861,1.454-3.766,2.188-5.61,1.486-3.727,2.984-7.365,4.483-11.007.641-1.556,1.273-3.152,1.914-4.695,1.759-4.213,3.532-8.337,5.309-12.44.393-.906.783-1.843,1.176-2.745q6.558-14.993,13.32-29.035c.566-1.18,1.145-2.316,1.715-3.484,1.684-3.457,3.369-6.905,5.075-10.278.8-1.583,1.614-3.112,2.418-4.677,1.379-2.683,2.759-5.367,4.151-8C595.189,220.485,551.822,280.951,497,357.385Z" transform="translate(-63.103 31.807)" fill="#e8e7f7"/>
    <path id="Path_2075" data-name="Path 2075" d="M392.839,309.733c15.061,23.332,30.644,47.46,43.88,73.719a.857.857,0,0,0,.172.186.847.847,0,0,0,.159.172,1.048,1.048,0,0,0,.42.181c.049.013.088.057.141.066l.1,0a1.122,1.122,0,0,0,.354-.062c.044-.013.057-.062.1-.084a.987.987,0,0,0,.358-.292.919.919,0,0,0,.15-.195c.018-.031.053-.049.066-.084,32.244-84.7-40.555-187.622-63.636-217.148a1.046,1.046,0,0,0-.393-.234c-.066-.035-.093-.124-.168-.146-.018,0-.036.013-.057.009a1.08,1.08,0,0,0-.831.111l0,0-.009,0c-14.769,9.323-23.368,20.247-26.268,33.389C340.8,229.122,364.918,266.477,392.839,309.733Zm45.193,69.055c-.508-2.63-1.026-5.181-1.538-7.772-.429-2.166-.853-4.354-1.282-6.494-.7-3.457-1.406-6.848-2.109-10.234-.393-1.892-.787-3.819-1.18-5.689-.835-3.943-1.684-7.811-2.533-11.662-.278-1.251-.548-2.537-.827-3.78q-1.684-7.573-3.413-14.911c-.3-1.3-.619-2.555-.928-3.842-.853-3.581-1.706-7.153-2.573-10.649-.433-1.742-.871-3.435-1.309-5.154-.751-2.988-1.507-5.977-2.272-8.908-.482-1.843-.972-3.643-1.459-5.464-.734-2.736-1.463-5.477-2.206-8.165-.517-1.87-1.043-3.7-1.561-5.552-.725-2.564-1.45-5.128-2.188-7.648-.544-1.87-1.1-3.713-1.644-5.561-.729-2.436-1.459-4.863-2.2-7.259-.562-1.826-1.132-3.634-1.7-5.433q-1.121-3.548-2.25-7.029c-.575-1.773-1.154-3.528-1.737-5.278q-1.141-3.422-2.3-6.79c-.592-1.724-1.189-3.444-1.79-5.146q-1.167-3.316-2.352-6.569c-.61-1.671-1.216-3.338-1.83-4.987q-1.207-3.236-2.436-6.405c-.619-1.609-1.233-3.223-1.861-4.805-.835-2.122-1.684-4.213-2.533-6.3-.619-1.53-1.238-3.064-1.866-4.571-.875-2.1-1.768-4.169-2.657-6.238-.619-1.441-1.238-2.9-1.866-4.332-.128-.292-.252-.592-.38-.88C423.028,234.1,459.454,315.622,438.032,378.789Zm-88.5-178.976c2.7-12.223,10.627-22.475,24.221-31.312.84,1.817,1.662,3.669,2.489,5.517.641,1.432,1.291,2.838,1.923,4.288.977,2.228,1.927,4.5,2.887,6.773.553,1.313,1.118,2.6,1.671,3.93,1.3,3.148,2.582,6.353,3.85,9.58.19.482.385.946.575,1.428q2.195,5.61,4.328,11.392c.4,1.079.782,2.193,1.176,3.276,1.017,2.794,2.029,5.583,3.028,8.439.522,1.5,1.03,3.041,1.552,4.558.853,2.507,1.711,5,2.555,7.551.548,1.658,1.079,3.36,1.622,5.04.8,2.467,1.6,4.929,2.383,7.444.553,1.786,1.1,3.616,1.649,5.42.756,2.48,1.512,4.947,2.259,7.467.553,1.883,1.1,3.815,1.649,5.725.725,2.511,1.45,5.013,2.162,7.568.553,1.976,1.1,4,1.64,6,.7,2.56,1.4,5.115,2.086,7.719.544,2.056,1.079,4.155,1.614,6.242.681,2.626,1.357,5.252,2.025,7.926.539,2.14,1.065,4.323,1.6,6.494.659,2.688,1.313,5.38,1.963,8.116.531,2.228,1.052,4.491,1.574,6.75.636,2.754,1.273,5.517,1.905,8.32.526,2.334,1.043,4.7,1.565,7.064.615,2.8,1.229,5.61,1.835,8.457.526,2.453,1.043,4.942,1.565,7.431.588,2.829,1.176,5.672,1.759,8.545.53,2.6,1.056,5.238,1.578,7.882.31,1.556.615,3.134.919,4.7-12.475-23.7-26.666-45.688-40.436-67.013C367.04,265.7,343.155,228.7,349.53,199.813Z" transform="translate(-346.281 15.686)" fill="#e8e7f7"/>
    <path id="Path_2076" data-name="Path 2076" d="M427.362,233.624a15.356,15.356,0,0,0,16.012,16.012,17.463,17.463,0,0,0,16.007-16.012c.5-8.828-7.175-16.339-16.007-16.007C435.682,217.9,427.959,224.632,427.362,233.624Z" transform="translate(-69.036 192.928)" fill="#f5f4f9"/>
    <g id="Group_348" data-name="Group 348" transform="translate(3.033 65.965)">
      <path id="Path_2077" data-name="Path 2077" d="M373.134,296.559h93.192a10.627,10.627,0,0,0,10.618-10.2l2.263-56.487a10.624,10.624,0,0,0-10.614-11.052H382.218a10.625,10.625,0,0,0-10.49,8.939l-9.085,56.487A10.624,10.624,0,0,0,373.134,296.559Z" transform="translate(-293.814 131.12)" fill="#2e2b6d"/>
      <path id="Path_2078" data-name="Path 2078" d="M394.547,147.852c5.318,6.414,12.612,35.936-8.828,49.746-7.811-4.673-15.862-47.642-2.9-53.676C389.578,140.77,394.547,147.852,394.547,147.852Z" transform="translate(-247.732 -127.852)" fill="#2e2b6d"/>
      <path id="Path_2079" data-name="Path 2079" d="M481.281,178.059c-23.823-13.815-96.247-6.445-110.738,3.333-30.069,20.291,7.4,170.665,14,221.268,2.2,11.737,102.233,14.694,106.635-.707S504.26,191.378,481.281,178.059Z" transform="translate(-305.772 -34.352)" fill="#f26174" stroke="#000" stroke-width="1"/>
      <path id="Path_2080" data-name="Path 2080" d="M381.976,188.18c-.973,22.9-7.073,62.332-11.936,81.031-4.111-22.943-8.134-47.478-10.521-69.935Z" transform="translate(-304.031 26.307)" fill="#f26174"/>
      <path id="Path_2081" data-name="Path 2081" d="M381.968,155.255c-.729,29.7-1.464,59.281-10.632,73.215s47.3,18.7,39.6,2.935-6.967-66.615-6.967-66.615Z" transform="translate(-267.066 -86.319)" fill="#dddae5"/>
      <path id="Path_2082" data-name="Path 2082" d="M373.938,155.259l21.988,9.527s-.261,18.279,1.185,36.338c-.964-.04-2-.15-3.077-.261a27.9,27.9,0,0,1-21.356-13.05v-.04C373.385,177.5,373.681,166.417,373.938,155.259Z" transform="translate(-259.018 -86.305)" fill="#c6c2d3"/>
      <path id="Path_2083" data-name="Path 2083" d="M418.93,184.986c1.251,27.554,11.865,52.009-19.119,48.588s-32.633-44.127-27.324-76.884C375.9,135.607,416.486,131.146,418.93,184.986Z" transform="translate(-267.673 -131.632)" fill="#dddae5"/>
      <path id="Path_2084" data-name="Path 2084" d="M380.322,185.756a5.167,5.167,0,0,1-1.936-3.382c-.376-2.6,1.127-4.987,3.364-5.314,2.206-.318,4.354,1.53,4.739,4.133s-1.127,4.986-3.36,5.314a3.335,3.335,0,0,1-.513.035A3.822,3.822,0,0,1,380.322,185.756Zm1.587-7.6c-1.631.239-2.719,2.064-2.423,4.063h0a4.031,4.031,0,0,0,1.494,2.657,2.676,2.676,0,0,0,1.985.544c1.631-.239,2.719-2.06,2.423-4.063a3.482,3.482,0,0,0-3.13-3.223A2.357,2.357,0,0,0,381.909,178.153Z" transform="translate(-239.692 -11.851)" fill="#fff"/>
      <path id="Path_2085" data-name="Path 2085" d="M378.752,185.2h0a5.188,5.188,0,0,1,1.034-3.382,3.708,3.708,0,0,1,5.849-.234,5.368,5.368,0,0,1,.261,6.675,3.79,3.79,0,0,1-2.869,1.547l-.142,0C380.7,189.808,378.854,187.77,378.752,185.2Zm3.948-3.824a2.71,2.71,0,0,0-2.042,1.118,4.077,4.077,0,0,0-.8,2.661h0c.08,1.98,1.428,3.55,3.028,3.55l.1,0a2.7,2.7,0,0,0,2.038-1.118,4.269,4.269,0,0,0-.208-5.252,2.71,2.71,0,0,0-2.016-.959Z" transform="translate(-238.255 -0.775)" fill="#fff"/>
      <path id="Path_2086" data-name="Path 2086" d="M369.67,224.77c8.24,7.533,28.893-21.657,22.736,4.054-3.669,15.3-12.157,22.316-21.237,14.487-7.71-6.649-10.534-12.148-10.534-12.148Z" transform="translate(-300.217 128.327)" fill="#e8e6ed"/>
      <path id="Path_2087" data-name="Path 2087" d="M347.205,304.473a7.468,7.468,0,0,1,.279-1.092c0-.031-.018-.071-.022-.106-2.029-18.244,47.774-119.84,64.277-130.352l14.884,69.2c-14.769,13.8-39.764,43.968-49.388,64.237,9.854,20.724,20.419,50.586,42.332,69.436a2.316,2.316,0,0,1,.177,3.377l-10.022,10.464a2.331,2.331,0,0,1-3.086.27C395.683,381.716,343,337.346,347.205,304.473Z" transform="translate(-346.967 -25.882)" fill="#f26174" stroke="#000" stroke-width="1"/>
      <path id="Path_2088" data-name="Path 2088" d="M360.287,233.654a100.569,100.569,0,0,0,14.8-14.752l-.853-.7a99.252,99.252,0,0,1-14.624,14.575Z" transform="translate(-303.703 129.009)" fill="#fff"/>
      <path id="Path_2089" data-name="Path 2089" d="M403.933,221.643c-6.658,7.533-16.45-12.758-16.45,4.346,0,15.587,5.557,21.736,15.238,14.195,7.184-5.6,8.51-12.148,8.51-12.148Z" transform="translate(-208.375 131.454)" fill="#e8e6ed"/>
      <path id="Path_2090" data-name="Path 2090" d="M386.669,172.169c28.708,11.233,64.7,105.234,63.49,133.9a5,5,0,0,1-.358,1.653c-1.865,32.293-29.654,76.327-35.494,84.74a1.626,1.626,0,0,1-2.489.274l-10.167-8.47a2.7,2.7,0,0,1-.592-3.324c13.351-22.448,18.143-59.715,21.7-82.1-5.407-19.743-16.326-37.885-29.526-53.15Z" transform="translate(-211.16 -28.462)" fill="#f26174" stroke="#000" stroke-width="1"/>
      <path id="Path_2091" data-name="Path 2091" d="M404.886,231.339l.566-.946a91.82,91.82,0,0,1-14.668-11.671l-.769.787A92.684,92.684,0,0,0,404.886,231.339Z" transform="translate(-199.714 130.781)" fill="#fff"/>
      <path id="Path_2092" data-name="Path 2092" d="M380.776,213.542h1.105a229.6,229.6,0,0,0-4.222-37.987l-1.088.2A228.847,228.847,0,0,1,380.776,213.542Z" transform="translate(-245.698 -16.879)" fill="#fff"/>
      <path id="Path_2093" data-name="Path 2093" d="M363.758,247.976c3.965,0,18.112-.561,24.76-8.284,3.05-3.537,4.071-8.09,3.046-13.536l-1.087.2c.959,5.1.022,9.341-2.789,12.608-7.272,8.448-24.738,7.909-24.919,7.891l-.044,1.105C362.82,247.963,363.183,247.976,363.758,247.976Z" transform="translate(-293.071 156.21)" fill="#fff"/>
      <path id="Path_2094" data-name="Path 2094" d="M398.3,247.329l.482-1a22.329,22.329,0,0,1-11.419-19.99l-1.105-.013A23.48,23.48,0,0,0,398.3,247.329Z" transform="translate(-212.557 156.792)" fill="#fff"/>
      <path id="Path_2095" data-name="Path 2095" d="M375.064,154.921a8.017,8.017,0,0,1,4.62-.716c-1.339-1.543-3.634-2.564-6.91-3l.287-2.193c4.177.548,7.126,1.989,8.766,4.27l.009.013a18.206,18.206,0,0,1,2.374-4.085c7.307-10.013,12.259-2.414,17.957.079a5.511,5.511,0,0,0,2.414-1.384,4.818,4.818,0,0,0,.973-4.239l2.184-.332a6.937,6.937,0,0,1-1.552,6.087,5.984,5.984,0,0,1-.76.57,5.915,5.915,0,0,0,1.923-.345,13.527,13.527,0,0,0,7.608-7.148,9.868,9.868,0,0,1,1.335,7.206,25.089,25.089,0,0,0,5.406-10.048c5.5,4.584,11.3,24.079-1.326,28.438-11.755,4.054-22.13,1.569-30.149-2.131,3.7,11.454,4.522,31.824-12.254,42.629C370.162,203.924,362.107,160.96,375.064,154.921Z" transform="translate(-274.238 -139.661)" fill="#2e2b6d"/>
      <path id="Path_2096" data-name="Path 2096" d="M380.526,159.7c2.56,5.778,6.857,10.119-.04,11.962s-11.556-6.565-12.228-14.137C367.79,152.292,375.526,148.411,380.526,159.7Z" transform="translate(-274.205 -96.083)" fill="#dddae5"/>
    </g>
    <g id="Group_349" data-name="Group 349" transform="translate(260.094 87.848)">
      <path id="Path_2097" data-name="Path 2097" d="M526.319,301.97H427.074a15.472,15.472,0,0,1-15.234-18.191l11.892-66.54,102.63.827,15.03,64.944A15.471,15.471,0,0,1,526.319,301.97Z" transform="translate(-382.955 103.826)" fill="#2e2b6d"/>
      <path id="Path_2098" data-name="Path 2098" d="M448.07,298.63l1.1-.137c-.04-.345-4.456-34.946-13.978-79.917l-1.078.23C443.613,263.738,448.025,298.29,448.07,298.63Z" transform="translate(-305.944 108.399)" fill="#fff"/>
      <path id="Path_2099" data-name="Path 2099" d="M410.479,329c11.9,37.562,24.623,63.516,87.693,59.268,51.722-3.484,81-32.9,88.78-65.4,15.844-38.827-.835-54.454-17.126-67.676-7.816-11.127-16.1-21.8-21.086-33.721.809-29.327-3.74-48.212-14.257-59.175-8.32-8.682-20.49-12.829-39.866-13.554-2.042-.588-4.142-1.167-6.326-1.737-40.171-10.477-44.786,15.092-41.621,43.955C449.023,212.424,393.61,275.786,410.479,329Zm178.388-18.726a76.429,76.429,0,0,0,.15-9c-.752-15.2-6.967-27.665-14.535-39.256C586.006,272.373,595.365,285.555,588.867,310.276ZM503.4,151.547c13.731,1.516,22.912,5.42,29.495,12.281,9.385,9.792,13.806,26.4,13.731,51.806a53.48,53.48,0,0,1-2.285-11.229C541.667,173.615,529.431,160.618,503.4,151.547Z" transform="translate(-397.724 -144.611)" fill="#2e2b6d"/>
      <path id="Path_2100" data-name="Path 2100" d="M420.913,188.665c16.949-19.946,92.2-16.211,95.836,0,9,40.087-25.719,64.117,6.388,173.025,2.325,15.861-106.6,13.253-104.178-1.879C426.7,311.559,399.985,213.3,420.913,188.665Z" transform="translate(-379.101 -40.422)" fill="#f26174" stroke="#000" stroke-width="1"/>
      <path id="Path_2101" data-name="Path 2101" d="M442.794,191.623c-2.255,11.361-4.6,24.358-4.951,40.847-2.476-14.9-4.244-31.3-4.244-45.4Z" transform="translate(-307.688 0.627)" fill="#f26174"/>
      <path id="Path_2102" data-name="Path 2102" d="M448.623,160.19c.7,28.23,1.4,56.341,10.11,69.586s-44.958,17.776-37.642,2.789,6.622-63.313,6.622-63.313Z" transform="translate(-352.826 -91.32)" fill="#dddae5"/>
      <path id="Path_2103" data-name="Path 2103" d="M443.826,160.193l-20.9,9.058s.243,17.373-1.127,34.534c.915-.035,1.9-.141,2.922-.248a26.507,26.507,0,0,0,20.3-12.4V191.1C444.352,181.337,444.069,170.8,443.826,160.193Z" transform="translate(-348.042 -91.31)" fill="#c6c2d3"/>
      <path id="Path_2104" data-name="Path 2104" d="M421,188.447c-1.189,26.188-11.277,49.432,18.173,46.178s31.02-41.939,25.971-73.074C461.9,141.517,423.324,137.273,421,188.447Z" transform="translate(-359.753 -134.391)" fill="#dddae5"/>
      <path id="Path_2105" data-name="Path 2105" d="M422.5,154.888c24.994-20.3,44.963,4.416,48.062,14.1s-6.193,29.062-6.193,29.062c-8.448-4.478-29.26-16.551-39.167-27.545,3.855,10.4,11.3,15.729,23.385,21.454l-.946,2c-14.42-6.83-22.837-13.483-26.188-28.474C419.139,161.413,419.024,157.708,422.5,154.888Z" transform="translate(-354.923 -136.082)" fill="#2e2b6d"/>
      <path id="Path_2106" data-name="Path 2106" d="M431.349,164.419c-2.431,5.491-6.521,9.611.035,11.366s10.981-6.238,11.626-13.439C443.452,157.372,436.1,153.685,431.349,164.419Z" transform="translate(-327.391 -100.602)" fill="#dddae5"/>
      <path id="Path_2107" data-name="Path 2107" d="M446.317,215.806c-5.592,6.326-13.815-10.716-13.815,3.652,0,13.094,5.526,18.408,13.655,12.073,6.039-4.7,7.153-10.2,7.153-10.2Z" transform="translate(-311.441 91.099)" fill="#e8e6ed"/>
      <path id="Path_2108" data-name="Path 2108" d="M468.882,280.436c-9.549-24.469-22.572-46.09-35.326-59.626l9.248-43.592c13.651,8.793,47.836,74.776,51.731,98.09a5.379,5.379,0,0,1,.2.5c7.051,27.024-33.747,67.526-42.633,74.5a2.218,2.218,0,0,1-2.763-.159l-9.947-8.426a1.82,1.82,0,0,1-.186-2.785C456.464,323.206,462.405,297.81,468.882,280.436Z" transform="translate(-307.836 -33.073)" fill="#f26174" stroke="#000" stroke-width="1"/>
      <path id="Path_2109" data-name="Path 2109" d="M449.3,226.314l.615-.919a89.524,89.524,0,0,1-14.075-12.17l-.8.756A90.893,90.893,0,0,0,449.3,226.314Z" transform="translate(-302.776 90.092)" fill="#fff"/>
      <path id="Path_2110" data-name="Path 2110" d="M419.476,215.806c5.292,6.326,14.323-10.716,13.642,3.652-.619,13.094-6.4,18.408-14.226,12.073-5.818-4.7-6.671-10.2-6.671-10.2Z" transform="translate(-380.812 91.099)" fill="#e8e6ed"/>
      <path id="Path_2111" data-name="Path 2111" d="M405.242,278.093a5.813,5.813,0,0,1-.115-1.5c1.291-19.243,28.332-91.137,46.554-99.372l6.888,43.592c-14.46,14.615-23.377,28.938-30.79,58.331,4.5,17.691,3.461,44.463,19.557,59.8a1.836,1.836,0,0,1-.314,2.785l-10.344,8.426a2.234,2.234,0,0,1-2.772.159C426.262,344.085,404,305.519,405.242,278.093Z" transform="translate(-405.117 -33.073)" fill="#f26174" stroke="#000" stroke-width="1"/>
      <path id="Path_2112" data-name="Path 2112" d="M411.924,226.2c.031-.062,3.4-6.07,14.522-12.029l-.517-.977c-11.454,6.136-14.84,12.223-14.977,12.475Z" transform="translate(-385.157 90.006)" fill="#fff"/>
      <path id="Path_2113" data-name="Path 2113" d="M438.3,216.465l.38-.424a322.872,322.872,0,0,1,42.31-39.393l-.654-.884a323.006,323.006,0,0,0-42.1,39.114c-2.918-2.878-20.468-21-18.253-38.535l-1.1-.141c-2.471,19.588,18.788,39.676,19,39.874Z" transform="translate(-358.702 -38.047)" fill="#fff"/>
    </g>
    <g id="Group_351" data-name="Group 351" transform="translate(288.917 3.599)">
      <path id="Path_2123" data-name="Path 2123" d="M411.637,125.553h42V184.8h-42Zm39.791,2.21h-37.58v54.83h37.58Z" transform="translate(-411.637 -125.553)" fill="#f26174"/>
      <rect id="Rectangle_67" data-name="Rectangle 67" width="32.615" height="2.21" transform="translate(4.695 8.15)" fill="#f26174"/>
      <rect id="Rectangle_68" data-name="Rectangle 68" width="32.615" height="2.21" transform="translate(4.695 13.971)" fill="#f26174"/>
      <rect id="Rectangle_69" data-name="Rectangle 69" width="32.615" height="2.21" transform="translate(4.695 19.79)" fill="#f26174"/>
      <rect id="Rectangle_70" data-name="Rectangle 70" width="32.615" height="2.21" transform="translate(4.695 25.61)" fill="#f26174"/>
      <rect id="Rectangle_71" data-name="Rectangle 71" width="32.615" height="2.21" transform="translate(4.695 31.431)" fill="#f26174"/>
      <rect id="Rectangle_72" data-name="Rectangle 72" width="32.615" height="2.21" transform="translate(4.695 37.251)" fill="#f26174"/>
      <rect id="Rectangle_73" data-name="Rectangle 73" width="32.615" height="2.21" transform="translate(4.695 43.072)" fill="#f26174"/>
      <rect id="Rectangle_74" data-name="Rectangle 74" width="32.615" height="2.21" transform="translate(4.695 48.892)" fill="#f26174"/>
    </g>
    <g id="Group_353" data-name="Group 353" transform="translate(9.15 96.013)">
      <path id="Path_2126" data-name="Path 2126" d="M376.281,150.7h-27.93v37.912h27.93Zm-25.719,2.21h23.509V186.4H350.561Z" transform="translate(-348.351 -131.951)" fill="#f26174"/>
      <path id="Path_2127" data-name="Path 2127" d="M385.312,146.458h-27.93v56.66h27.93Zm-25.72,2.21H383.1v52.239H359.592Z" transform="translate(-317.459 -146.458)" fill="#f26174"/>
    </g>
  </g>
</svg>
