<svg xmlns="http://www.w3.org/2000/svg" width="58.744" height="58.744" viewBox="0 0 58.744 58.744">
  <g id="call" transform="translate(5678.671 -778.967)">
    <g id="Group_387" data-name="Group 387" transform="translate(-5678.671 778.967)" opacity="0.41">
      <circle id="Ellipse_243" data-name="Ellipse 243" cx="29.372" cy="29.372" r="29.372" fill="#e8e7f7"/>
    </g>
    <g id="Ellipse_267" data-name="Ellipse 267" transform="translate(-5670 788)" fill="none" stroke="#2e2b6d" stroke-width="1">
      <ellipse cx="24" cy="24.5" rx="24" ry="24.5" stroke="none"/>
      <ellipse cx="24" cy="24.5" rx="23.5" ry="24" fill="none"/>
    </g>
    <g id="call-2" data-name="call" transform="translate(-5658.887 799.078)">
      <g id="Group_385" data-name="Group 385" transform="translate(1 1.018)">
        <g id="Group_384" data-name="Group 384" transform="translate(0)">
          <path id="Path_2153" data-name="Path 2153" d="M28.118,22.5l-5.637-3.759a1.645,1.645,0,0,0-2.2.358l-1.642,2.111a.7.7,0,0,1-.9.189l-.312-.172a18.875,18.875,0,0,1-4.919-3.863,18.952,18.952,0,0,1-3.864-4.919l-.171-.312a.7.7,0,0,1,.186-.9l2.11-1.641a1.646,1.646,0,0,0,.358-2.2L7.365,1.749a1.637,1.637,0,0,0-2.206-.5L2.8,2.668A3.325,3.325,0,0,0,1.285,4.636c-.849,3.093-.21,8.43,7.652,16.293,6.254,6.254,10.91,7.936,14.111,7.936a8.222,8.222,0,0,0,2.181-.285A3.322,3.322,0,0,0,27.2,27.064l1.417-2.356A1.637,1.637,0,0,0,28.118,22.5Zm-.3,1.731L26.4,26.589a2.4,2.4,0,0,1-1.415,1.1c-2.855.784-7.843.135-15.391-7.414S1.4,7.737,2.181,4.881a2.4,2.4,0,0,1,1.1-1.417L5.636,2.05a.71.71,0,0,1,.957.215L8.635,5.331,10.349,7.9a.714.714,0,0,1-.155.956L8.084,10.5a1.624,1.624,0,0,0-.43,2.085l.168.3a19.687,19.687,0,0,0,4.023,5.133,19.708,19.708,0,0,0,5.132,4.022l.3.168a1.624,1.624,0,0,0,2.085-.43l1.641-2.11a.715.715,0,0,1,.956-.155L27.6,23.274A.71.71,0,0,1,27.815,24.232Z" transform="translate(-1 -1.018)" fill="#2e2b6d"/>
          <path id="Path_2154" data-name="Path 2154" d="M283.092,70.252a7.9,7.9,0,0,1,7.889,7.889.464.464,0,0,0,.928,0,8.827,8.827,0,0,0-8.817-8.817.464.464,0,0,0,0,.928Z" transform="translate(-267.312 -65.609)" fill="#2e2b6d"/>
          <path id="Path_2155" data-name="Path 2155" d="M283.092,121.452a5.111,5.111,0,0,1,5.1,5.1.464.464,0,1,0,.928,0,6.04,6.04,0,0,0-6.033-6.033.464.464,0,0,0,0,.928Z" transform="translate(-267.312 -114.025)" fill="#2e2b6d"/>
          <path id="Path_2156" data-name="Path 2156" d="M283.092,172.652a2.323,2.323,0,0,1,2.32,2.32.464.464,0,0,0,.928,0,3.252,3.252,0,0,0-3.249-3.249.464.464,0,0,0,0,.928Z" transform="translate(-267.312 -162.44)" fill="#2e2b6d"/>
        </g>
      </g>
    </g>
  </g>
</svg>
