<svg xmlns="http://www.w3.org/2000/svg" width="371.847" height="343.565" viewBox="0 0 371.847 343.565">
  <g id="career-ill" transform="translate(36.854 12.726)">
    <ellipse id="Ellipse_261" data-name="Ellipse 261" cx="185.923" cy="37.052" rx="185.923" ry="37.052" transform="translate(-36.854 256.734)" fill="#fff" opacity="0.32"/>
    <ellipse id="Ellipse_262" data-name="Ellipse 262" cx="154.38" cy="27.544" rx="154.38" ry="27.544" transform="translate(-5.31 266.242)" fill="#fff" opacity="0.32"/>
    <ellipse id="Ellipse_263" data-name="Ellipse 263" cx="128.296" cy="15.835" rx="128.296" ry="15.835" transform="translate(20.774 277.951)" fill="#fff" opacity="0.32"/>
    <g id="Group_331" data-name="Group 331" transform="translate(13.948)">
      <path id="Path_2007" data-name="Path 2007" d="M301.435,255.561c4.645,69.881-56.911,131.156-126.812,126.812-66.644-4.146-123.157-61.244-126.812-126.812-3.9-69.929,56.825-129.416,126.812-126.812C235.541,131.016,296.7,184.333,301.435,255.561Z" transform="translate(-47.633 -123.269)" fill="#fff" opacity="0.42"/>
      <path id="Path_2008" data-name="Path 2008" d="M179.971,154.472c1.015,15.278-12.443,28.675-27.724,27.727-14.57-.906-26.927-13.391-27.724-27.727-.853-15.287,12.423-28.293,27.724-27.724C165.565,127.245,178.936,138.9,179.971,154.472Z" transform="translate(89.776 -126.731)" fill="#fff" opacity="0.42"/>
      <path id="Path_2009" data-name="Path 2009" d="M89.326,229.877c.661,9.936-8.094,18.649-18.03,18.03a19.668,19.668,0,0,1-18.03-18.03c-.555-9.942,8.08-18.4,18.03-18.03C79.956,212.171,88.652,219.751,89.326,229.877Z" transform="translate(-63.607 -224.562)" fill="#fff" opacity="0.42"/>
    </g>
    <path id="Path_2012" data-name="Path 2012" d="M244.995,185.549c-3.733-2.32-10.884,1.74-18.451,6.039-6.095,3.46-12.4,7.037-16.814,7.235-2.587.106-4.157-.368-4.645-1.439-.828-1.821.588-6.51,12.047-18.512q1.259-1.317,2.643-2.746c9.644-9.992,22.853-23.676,21.484-33.568-.441-3.181-2.348-5.777-5.671-7.714-4.946-2.888-9.87-3.555-14.626-1.985-9.159,3.022-17.707,14.04-26.135,33.682-.87,2.03-1.756,4.151-2.649,6.293-.965,2.314-1.98,4.75-3.142,7.434-3.69,8.525-7.816,16.841-10.9,16.841h0c-1.076,0-2.1-1.154-3.061-3.429-1.7-4.065-3.017-9.83-4.285-15.406-2.18-9.582-4.065-17.86-7.829-18.7-1.564-.348-3.181.577-4.94,2.835-6.5,8.333-5.821,24.5-5.166,40.125.585,13.96,1.188,28.4-3.36,36.763-1.943,3.574-2.777,3.541-2.869,3.549-1.032-.178-1.829-5.233-2.412-8.924-1.115-7.082-2.506-15.894-7.073-18.047-1.876-.884-4.112-.574-6.635.917-7.464,4.416-7.784,12.9-8.364,28.312a339.067,339.067,0,0,1-3.608,41.377c-4.21,27.406-6.51,56.365-6.532,56.655l-.1,1.229q-5.106,11.626-10.2,23.818l1.288.535q5.587-13.4,11.216-26.1c4.143-4.291,20.818-20.969,40.5-32.792,12.055-7.243,22.218-10.2,30.384-12.574,10.968-3.192,18.891-5.5,23.829-15.766,1.731-3.591,1.982-6.134.772-7.767-2.175-2.939-8.356-1.993-14.9-.993-5.607.859-11.961,1.832-13.564-.493-.973-1.413-.3-4.171,1.985-8.194,11.071-19.463,28.39-34.072,42.305-45.812,11.988-10.118,21.459-18.108,21.861-25.2C247.607,189.129,246.824,186.681,244.995,185.549Zm-20.369,31.61c-14,11.81-31.421,26.511-42.617,46.189-2.612,4.592-3.24,7.756-1.921,9.672,2.1,3.047,8.328,2.094,14.924,1.082,5.573-.853,11.888-1.821,13.564.443.862,1.163.558,3.3-.906,6.334-4.67,9.711-11.947,11.827-22.965,15.03-8.244,2.4-18.5,5.384-30.713,12.719-16.909,10.162-31.621,23.885-38.173,30.384,50.388-113.251,100.05-184.041,100.591-184.8l-1.14-.806c-.541.767-50.881,72.51-101.642,187.105.672-7.812,2.833-31.315,6.29-53.814a339.653,339.653,0,0,0,3.622-41.536c.58-15.4.873-23.138,7.684-27.163a7.379,7.379,0,0,1,3.675-1.221,3.835,3.835,0,0,1,1.656.365c3.9,1.835,5.225,10.243,6.29,17,1.009,6.4,1.625,9.747,3.555,10.079,1.285.226,2.584-1.046,4.327-4.254,4.731-8.7,4.121-23.338,3.53-37.487-.644-15.379-1.31-31.279,4.873-39.21,1.374-1.765,2.557-2.545,3.535-2.334,2.905.65,4.96,9.68,6.772,17.648,1.282,5.632,2.61,11.459,4.36,15.635,1.207,2.886,2.632,4.288,4.346,4.285h0c4.843,0,9.934-12.209,15.323-25.134.889-2.136,1.773-4.252,2.643-6.279,8.147-18.986,16.653-30.057,25.29-32.907,4.363-1.439,8.9-.811,13.486,1.862,2.978,1.737,4.609,3.928,4.993,6.7,1.277,9.223-11.662,22.625-21.108,32.408-.92.954-1.807,1.874-2.649,2.752-9.9,10.374-13.812,16.745-12.309,20.054.747,1.642,2.774,2.406,5.978,2.253,4.754-.212,11.2-3.872,17.439-7.416,6.884-3.906,14.007-7.946,17.032-6.067,1.335.831,1.918,2.922,1.734,6.217C245.628,199.439,236.36,207.259,224.626,217.159Z" transform="translate(63.006 -117.253)" fill="#e8e7f7" opacity="0.42"/>
    <g id="Group_332" data-name="Group 332" transform="translate(-27.415 191.533)" opacity="0.42">
      <path id="Path_2013" data-name="Path 2013" d="M120.719,223.086c-8.41-8.109-5.442-34.543-15.024-40.876-7.166-4.736-4.274,11.919-6.075,20.133-1.821,8.3-9.98-3.1-16.682-11.1-10.191-12.158-20.289-17.938-29.027-9.968s7.879,15.5,17.15,20.287c7.57,3.907,14.338,8.551,6.995,10.405-7.911,2-27.293-7.448-24.105,3.236,2.376,7.965,31.668,10.923,49.314,27.2,11.988,11.059-23.348,4.318-13.984,14.425,7.545,8.147,17.693,1.376,37.546,5.5A128.663,128.663,0,0,1,157.37,273.39s-5.081-15.554-11.258-30.076c-9.891-23.251-7.686-34.405-16.065-36.086C118.212,204.853,129.128,231.193,120.719,223.086Z" transform="translate(-51.448 -177.609)" fill="#fff"/>
    </g>
    <path id="Path_2014" data-name="Path 2014" d="M163.63,269.855H98.639a7.409,7.409,0,0,1-7.4-7.112l-1.578-39.392a7.407,7.407,0,0,1,7.4-7.706H157.3a7.412,7.412,0,0,1,7.316,6.234l6.334,39.389A7.411,7.411,0,0,1,163.63,269.855Z" transform="translate(41.446 32.249)" fill="#2e2b6d"/>
    <path id="Path_2015" data-name="Path 2015" d="M85.34,175.989a24.252,24.252,0,0,0-1.472-4.218c.636-3.5-.02-7.976-8.743-12.211-6.145-2.983-3.44.374-.245,3.683-3.633-1.511-8.462-2.32-14.983-1.957-18.412,1.023,6.05,8.3,12.722,10.725s5.816,7.43,5.816,7.43Z" transform="translate(-23.799 -70.099)" fill="#dddae5"/>
    <path id="Path_2016" data-name="Path 2016" d="M101.821,135.237c-3.705,4.475-8.8,25.059,6.159,34.691,5.445-3.259,11.06-33.222,2.024-37.432C105.286,130.3,101.821,135.237,101.821,135.237Z" transform="translate(56.185 -117.429)" fill="#2e2b6d"/>
    <path id="Path_2017" data-name="Path 2017" d="M224.77,169.789c-9.83-6.633-57.865-11.673-75.775-3.081v0c-10.678,3.415-37.554,32.444-52.551,48.865-8.707-13.265-18.774-31.053-22.363-47.184a1.612,1.612,0,0,0-2.016-1.216l-9.736,2.716a1.628,1.628,0,0,0-1.179,1.809c1.372,9.033,9.694,58.378,29.38,69.736.187.12.374.234.566.34.075.042.151.078.226.117a11.975,11.975,0,0,0,1.4.636c.151.061.293.142.443.2a4.089,4.089,0,0,0,.46.112l.042.011a5.355,5.355,0,0,0,.948.167,5.16,5.16,0,0,0,2.808-.29c.19-.084.4-.19.594-.282a11.119,11.119,0,0,0,1.835-.928c10.014-5.364,27.916-19.014,37.814-26.77-2.189,43.5,1.006,101.963,2.975,108.852,3.067,10.739,72.825,8.673,74.359.491C219.6,288.8,245.739,183.938,224.77,169.789Z" transform="translate(-9.549 -63.386)" fill="#7363dc" stroke="#2e2b6d" stroke-width="1"/>
    <path id="Path_2018" data-name="Path 2018" d="M116.8,181.35c.669,15.641,5.13,43.493,8.28,53.753,2.7-15.334,5.269-31.5,6.775-46.309Z" transform="translate(89.985 -29.071)" fill="#7363dc"/>
    <path id="Path_2019" data-name="Path 2019" d="M120.566,145.359c.513,20.712,1.023,41.338,7.416,51.057s-32.988,13.039-27.618,2.044,4.859-46.451,4.859-46.451Z" transform="translate(59.694 -93.423)" fill="#dddae5"/>
    <path id="Path_2020" data-name="Path 2020" d="M117.645,145.363l-15.334,6.644s.181,12.747-.825,25.337c.672-.025,1.394-.1,2.144-.178a19.451,19.451,0,0,0,14.893-9.1v-.025C118.033,160.875,117.826,153.144,117.645,145.363Z" transform="translate(62.603 -93.416)" fill="#c6c2d3"/>
    <path id="Path_2021" data-name="Path 2021" d="M99.426,160.682c-.873,19.215-8.275,36.266,13.332,33.88s22.758-30.768,19.056-53.613C129.433,126.247,101.13,123.136,99.426,160.682Z" transform="translate(55.483 -119.613)" fill="#dddae5"/>
    <path id="Path_2022" data-name="Path 2022" d="M102.018,176.008a2.56,2.56,0,0,1-.357-.025,2.6,2.6,0,0,1-1.7-1.046,3.527,3.527,0,0,1-.611-2.618,3.094,3.094,0,0,1,3.262-2.852,2.618,2.618,0,0,1,1.848,1.269,3.573,3.573,0,0,1,.463,2.395h0a3.59,3.59,0,0,1-1.129,2.166A2.657,2.657,0,0,1,102.018,176.008Zm.24-5.869a2.471,2.471,0,0,0-2.219,2.281,2.832,2.832,0,0,0,.482,2.1,1.909,1.909,0,0,0,1.241.772,1.957,1.957,0,0,0,1.57-.519,2.891,2.891,0,0,0,.9-1.745h0a2.891,2.891,0,0,0-.368-1.929,1.931,1.931,0,0,0-1.358-.945A1.9,1.9,0,0,0,102.258,170.139Z" transform="translate(58.709 -50.36)" fill="#fff"/>
    <path id="Path_2023" data-name="Path 2023" d="M101.634,179.606h-.095a2.627,2.627,0,0,1-1.974-1.065,3.566,3.566,0,0,1-.711-2.334,2.851,2.851,0,1,1,2.78,3.4Zm.067-5.885a2.414,2.414,0,0,0-2.15,2.512,2.866,2.866,0,0,0,.566,1.882,1.931,1.931,0,0,0,1.45.795h.067a2.656,2.656,0,0,0,.137-5.186Z" transform="translate(57.892 -43.96)" fill="#fff"/>
    <path id="Path_2024" data-name="Path 2024" d="M61.371,169.786l-.29-.633a69.788,69.788,0,0,1,13.934-4.243l.131.683A69.373,69.373,0,0,0,61.371,169.786Z" transform="translate(-9.641 -58.466)" fill="#fff"/>
    <path id="Path_2025" data-name="Path 2025" d="M129.326,219.462c-5.743,5.25-20.149-15.105-15.853,2.827,2.557,10.672,8.476,15.56,14.807,10.1,5.378-4.639,7.349-8.473,7.349-8.473Z" transform="translate(82.628 30.634)" fill="#e8e6ed"/>
    <path id="Path_2026" data-name="Path 2026" d="M171.481,256.631a4.7,4.7,0,0,0-.2-.761.751.751,0,0,0,.02-.075c1.416-12.724-33.317-83.57-44.823-90.9L116.1,213.15c10.3,9.624,27.727,30.662,34.437,44.8-6.87,14.45-14.236,35.277-29.519,48.422a1.608,1.608,0,0,0-.123,2.35l6.99,7.3a1.621,1.621,0,0,0,2.152.187C137.677,310.5,174.417,279.552,171.481,256.631Z" transform="translate(88.739 -58.492)" fill="#7363dc" stroke="#2e2b6d" stroke-width="1"/>
    <path id="Path_2027" data-name="Path 2027" d="M128.5,225.691a69.955,69.955,0,0,1-10.318-10.282l.541-.438a69.271,69.271,0,0,0,10.2,10.168Z" transform="translate(92.452 31.043)" fill="#fff"/>
    <path id="Path_2028" data-name="Path 2028" d="M102.674,194.293h-.7a160.006,160.006,0,0,1,2.944-26.486l.686.125A159.174,159.174,0,0,0,102.674,194.293Z" transform="translate(63.481 -53.286)" fill="#fff"/>
    <path id="Path_2029" data-name="Path 2029" d="M130.93,238.932c-2.766,0-12.613-.39-17.241-5.766-2.116-2.456-2.827-5.623-2.113-9.41l.686.128c-.672,3.569-.014,6.538,1.957,8.827,5.077,5.9,17.288,5.523,17.4,5.512l.028.7C131.586,238.924,131.332,238.932,130.93,238.932Z" transform="translate(80.165 46.753)" fill="#fff"/>
    <path id="Path_2030" data-name="Path 2030" d="M89.755,238.555l-.3-.63a15.6,15.6,0,0,0,7.982-13.973l.7-.008A16.323,16.323,0,0,1,89.755,238.555Z" transform="translate(41.085 47.085)" fill="#fff"/>
    <path id="Path_2031" data-name="Path 2031" d="M134.45,138.758a5.572,5.572,0,0,0-3.3-.491,5.592,5.592,0,0,1,6.577.664l.862-1.1a7.04,7.04,0,0,0-8.888-.276,12.75,12.75,0,0,0-1.625-2.782c-5.188-7.109-8.673-1.483-12.741.151a5.594,5.594,0,0,1-3.716-4.3l-1.352.332a7.073,7.073,0,0,0,2.855,4.363,4.158,4.158,0,0,1-1.179-.243,9.442,9.442,0,0,1-5.306-4.985,6.89,6.89,0,0,0-.931,5.027,17.516,17.516,0,0,1-3.769-7.009c-3.833,3.2-7.882,16.792.926,19.831,8.2,2.827,15.432,1.093,21.024-1.486-2.579,7.985-3.156,22.192,8.542,29.728C137.871,172.93,143.483,142.968,134.45,138.758Z" transform="translate(55.626 -124.253)" fill="#2e2b6d"/>
    <path id="Path_2032" data-name="Path 2032" d="M111.084,147.295c-1.784,4.029-4.784,7.054.028,8.342s8.057-4.581,8.528-9.861C119.964,142.126,114.572,139.421,111.084,147.295Z" transform="translate(75.162 -99.066)" fill="#dddae5"/>
  </g>
</svg>
