<svg xmlns="http://www.w3.org/2000/svg" width="379.018" height="321.92" viewBox="0 0 379.018 321.92">
  <g id="contact" transform="translate(5680.17 -845.243)">
    <ellipse id="Ellipse_264" data-name="Ellipse 264" cx="185.923" cy="37.052" rx="185.923" ry="37.052" transform="translate(-5673 1093.059)" fill="#fff" opacity="0.32"/>
    <ellipse id="Ellipse_265" data-name="Ellipse 265" cx="154.38" cy="27.544" rx="154.38" ry="27.544" transform="translate(-5641.457 1102.567)" fill="#fff" opacity="0.32"/>
    <ellipse id="Ellipse_266" data-name="Ellipse 266" cx="128.296" cy="15.835" rx="128.296" ry="15.835" transform="translate(-5615.373 1114.276)" fill="#fff" opacity="0.32"/>
    <g id="Group_386" data-name="Group 386" transform="translate(-5680.17 839.967)">
      <g id="Group_340" data-name="Group 340" transform="translate(0 10.167)">
        <g id="Group_337" data-name="Group 337" transform="translate(18.455)">
          <path id="Path_2043" data-name="Path 2043" d="M456.86,356.909c-4.734-71.228-65.894-124.546-126.812-126.812a118.475,118.475,0,0,0-25.067,1.737c-14.247,2.518-28.6-1.784-39.93-10.781a34.963,34.963,0,0,0-20.16-7.8c-18.986-.705-35.458,15.432-34.4,34.4a34.6,34.6,0,0,0,3.446,13.131c6.265,12.953,5.947,28.212-.1,41.265a114.863,114.863,0,0,0-10.6,54.862c2.3,41.36,25.638,79.346,59.284,102.8a2.615,2.615,0,0,1-.234,4.455,17.187,17.187,0,0,0-8.919,15.769c.555,9.939,9.649,18.51,19.923,18.047a17.217,17.217,0,0,0,16.02-19.223l-.025-.176a2.616,2.616,0,0,1,3.449-2.927,128.473,128.473,0,0,0,37.312,8.068C399.948,488.065,461.5,426.79,456.86,356.909Z" transform="translate(-187.213 -212.881)" fill="#fff" opacity="0.42"/>
        </g>
        <g id="Group_338" data-name="Group 338" transform="translate(157.813 149.161)">
          <path id="Path_2046" data-name="Path 2046" d="M340.329,266.605c-34.7,33.791-64.718,76.55-92.865,122.909C244.891,343.088,291.1,296.6,340.329,266.605Z" transform="translate(-247.361 -266.605)" fill="#e8e7f7"/>
          <path id="Path_2047" data-name="Path 2047" d="M340.264,266.605c38.982,42.47-36.949,71.9-92.865,122.909C275.546,343.155,305.567,300.4,340.264,266.605Z" transform="translate(-247.295 -266.605)" fill="#d5d5ef"/>
        </g>
        <g id="Group_339" data-name="Group 339" transform="translate(173.088 236.678)">
          <path id="Path_2048" data-name="Path 2048" d="M323.284,299.251c-22.73,2.141-46.4,8.961-70.444,17.654C265.626,299.1,296.338,295.7,323.284,299.251Z" transform="translate(-252.84 -297.996)" fill="#e8e7f7"/>
          <path id="Path_2049" data-name="Path 2049" d="M323.284,298.446c1.751,27.122-34.83,15.468-70.444,17.654C276.887,307.407,300.554,300.587,323.284,298.446Z" transform="translate(-252.84 -297.19)" fill="#d5d5ef"/>
        </g>
        <path id="Path_2050" data-name="Path 2050" d="M303.931,338.594c-25.335-45.285-61.863-82.413-88.045-105.587a.638.638,0,0,0-.217-.081c-.05-.022-.084-.078-.139-.086-.02,0-.033.017-.053.014a.685.685,0,0,0-.326.084c-.045.022-.1.006-.145.039-15.1,11.5-22.987,23.851-24.111,37.772-2.59,32.09,31.836,68.392,71.7,110.427,21.468,22.639,43.668,46.047,63.566,72.008.017.022.047.014.064.033a.681.681,0,0,0,.488.24l.047,0c.028,0,.045-.025.07-.028a.777.777,0,0,0,.223-.059c.02-.011.022-.036.042-.047a.7.7,0,0,0,.187-.223.627.627,0,0,0,.086-.142c.006-.014.02-.02.022-.036C335.385,419.178,327.492,380.712,303.931,338.594Zm-1.216.68c22.867,40.878,30.874,78.24,23.818,111.1-1.19-3.072-2.375-6.053-3.566-9.072-.9-2.3-1.807-4.631-2.71-6.9-1.43-3.6-2.86-7.107-4.291-10.628-.8-1.968-1.6-3.979-2.395-5.924-1.846-4.494-3.691-8.9-5.534-13.276-.379-.9-.761-1.834-1.14-2.732q-3.329-7.858-6.658-15.457c-.73-1.662-1.458-3.268-2.186-4.912-1.5-3.376-2.992-6.761-4.489-10.065-.9-1.982-1.8-3.9-2.7-5.858-1.33-2.891-2.66-5.8-3.992-8.637-.965-2.055-1.932-4.051-2.9-6.078-1.266-2.657-2.534-5.333-3.806-7.94-1-2.057-2.007-4.062-3.014-6.092-1.238-2.5-2.479-5.021-3.722-7.477-1.026-2.027-2.055-4-3.081-6-1.23-2.387-2.456-4.784-3.691-7.129-1.04-1.977-2.083-3.909-3.125-5.855-1.227-2.294-2.456-4.592-3.689-6.844-1.051-1.921-2.11-3.808-3.164-5.7-1.232-2.205-2.462-4.413-3.7-6.58-1.068-1.871-2.138-3.708-3.209-5.551-1.232-2.119-2.467-4.238-3.705-6.32-1.085-1.821-2.172-3.616-3.259-5.412-1.238-2.038-2.476-4.073-3.719-6.075-1.1-1.77-2.2-3.516-3.3-5.255-1.243-1.968-2.492-3.928-3.747-5.86q-1.664-2.572-3.343-5.1-1.886-2.852-3.786-5.662-1.69-2.492-3.39-4.949c-.652-.942-1.3-1.915-1.954-2.852C245.221,261.444,278.928,296.76,302.715,339.274ZM192.283,270.859c1.076-13.324,8.6-25.215,22.99-36.336,1.3,1.829,2.6,3.705,3.892,5.565,1.062,1.525,2.133,3.025,3.192,4.572,1.453,2.127,2.891,4.313,4.335,6.482.951,1.43,1.907,2.827,2.855,4.277,2.111,3.229,4.207,6.524,6.3,9.85.75,1.193,1.494,2.4,2.242,3.611,1.868,3.011,3.73,6.033,5.582,9.125.887,1.478,1.762,3.008,2.646,4.5,1.444,2.453,2.894,4.89,4.333,7.4.973,1.7,1.938,3.446,2.905,5.163,1.338,2.373,2.679,4.72,4.009,7.137,1,1.823,2,3.705,3,5.554,1.291,2.387,2.584,4.751,3.87,7.182,1.015,1.918,2.024,3.9,3.036,5.844,1.263,2.428,2.529,4.84,3.786,7.316,1.029,2.021,2.052,4.1,3.078,6.153,1.238,2.481,2.479,4.94,3.716,7.466,1.032,2.1,2.058,4.271,3.086,6.41,1.227,2.548,2.453,5.077,3.677,7.67,1.034,2.2,2.069,4.458,3.106,6.688,1.21,2.612,2.423,5.208,3.633,7.871,1.048,2.3,2.091,4.659,3.136,7,1.2,2.674,2.395,5.331,3.591,8.052,1.054,2.4,2.108,4.859,3.162,7.293,1.188,2.746,2.373,5.473,3.56,8.266,1.059,2.5,2.122,5.049,3.181,7.583,1.182,2.821,2.361,5.629,3.544,8.5,1.065,2.587,2.13,5.233,3.2,7.862,1.179,2.911,2.359,5.81,3.541,8.774,1.068,2.674,2.136,5.4,3.2,8.119.875,2.222,1.748,4.45,2.623,6.7-19.165-24.5-40.256-46.738-60.689-68.286C223.971,338.424,189.743,302.333,192.283,270.859Z" transform="translate(-190.757 -177.818)" fill="#e8e7f7"/>
      </g>
      <g id="Group_345" data-name="Group 345" transform="translate(78.67)">
        <g id="Group_342" data-name="Group 342" transform="translate(0 5.276)">
          <path id="Path_2051" data-name="Path 2051" d="M308.143,350.739H238.934a10.79,10.79,0,0,1-10.62-12.688l8.292-46.4,71.568.58,10.483,45.288A10.79,10.79,0,0,1,308.143,350.739Z" transform="translate(-160.944 -67.773)" fill="#2e2b6d"/>
          <path id="Path_2052" data-name="Path 2052" d="M241.8,348.945l.691-.086c-.031-.24-3.111-24.367-9.747-55.727l-.68.142C238.69,324.609,241.768,348.705,241.8,348.945Z" transform="translate(-95.425 -65.123)" fill="#fff"/>
          <path id="Path_2053" data-name="Path 2053" d="M246.446,243.658c-2.2-20.054,1-37.811,28.728-30.715,14.158.814,24.077,4.6,30.919,11.729,8.06,8.409,11.771,21.548,11.417,39.972,3.5,8.512,9.418,16.1,14.977,24.027,11.224,9.131,22.577,19.982,11.86,46.593-5.292,22.811-25.717,43.543-61.986,45.985-43.983,2.964-52.849-15.136-61.155-41.329C209.443,302.808,248.085,258.624,246.446,243.658Zm88.962,49.309c5.353,8.152,9.772,16.909,10.3,27.621a53.134,53.134,0,0,1-.148,6.725C350.371,309.6,343.63,300.285,335.408,292.966Zm-20.857-39.935a37.591,37.591,0,0,0,1.617,7.91c-.184-16.131-3.822-27.729-11.082-35.3-5.169-5.392-12.27-8.757-21.73-10.357C303.34,221.657,312.6,230.537,314.551,253.031Z" transform="translate(-165.088 -211.35)" fill="#2e2b6d"/>
          <path id="Path_2054" data-name="Path 2054" d="M281.872,238.071a44.9,44.9,0,0,1,4.611.36c-.948-1.14-.753-1.676,2.339-.488a18.475,18.475,0,0,1,4.249,2.205c5.766,2.676,6.153,7.542,6.415,12.407l-7.759.477s4.36-4.9-1.943-6.025C280.177,245.3,270.221,237.753,281.872,238.071Z" transform="translate(-276.605 -165)" fill="#dddae5"/>
          <path id="Path_2055" data-name="Path 2055" d="M232.028,244.247a1.466,1.466,0,0,1,1.361-1.4l9.086-.7a1.455,1.455,0,0,1,1.572,1.43c.34,14.472,4.84,31.764,10.369,44.77,11.59-9.842,29.491-23.472,44.363-32.037l0,.039c16.675-10.079,60.483-7.009,62.8,3.3,6.273,27.953-17.935,44.708,4.455,120.656,1.62,11.063-74.342,9.245-72.647-1.31,3.7-23.068-3.889-62.526-4.327-90.6-8.648,6.758-23.238,17.843-32.2,22.931a12.718,12.718,0,0,1-2.122,1.146c-.446.226-.878.435-1.28.613a4.61,4.61,0,0,1-2.456.276,5.457,5.457,0,0,1-3.072-.678C230.263,301.629,231.643,252.836,232.028,244.247Z" transform="translate(-218.361 -156.288)" fill="#f26174" stroke="#2e2b6d" stroke-width="1"/>
          <path id="Path_2056" data-name="Path 2056" d="M233.055,292.906a4.805,4.805,0,0,1,5.1-4.489c13.41.725,26.821-3.6,38.251-7.416,1.032,5.966,2.4,12.434,4.21,19.432-15.5,3.346-34.906,1.478-43.6.2a4.821,4.821,0,0,1-4.126-5.074Z" transform="translate(-135.831 -86.814)" fill="#f26174"/>
          <path id="Path_2057" data-name="Path 2057" d="M260.825,228.57c.485,19.686.973,39.291,7.048,48.528s-31.351,12.4-26.249,1.943,4.62-44.151,4.62-44.151Z" transform="translate(-146.795 -180.56)" fill="#dddae5"/>
          <path id="Path_2058" data-name="Path 2058" d="M258.976,228.574,244.4,234.889s.173,12.117-.786,24.083c.638-.025,1.327-.1,2.038-.17a18.488,18.488,0,0,0,14.155-8.651v-.025C259.344,243.32,259.146,235.971,258.976,228.574Z" transform="translate(-144.958 -180.553)" fill="#c6c2d3"/>
          <path id="Path_2059" data-name="Path 2059" d="M242.783,243.133c-.828,18.264-7.862,34.471,12.674,32.2s21.629-29.246,18.111-50.959C271.3,210.407,244.4,207.446,242.783,243.133Z" transform="translate(-152.85 -205.453)" fill="#dddae5"/>
          <path id="Path_2060" data-name="Path 2060" d="M239.156,225.194a4.716,4.716,0,0,1,1.514-5.665c17.431-14.155,31.354,3.078,33.515,9.833s-4.321,20.266-4.321,20.266c-1.929-1.023-4.8-2.621-8.013-4.572-5.858-.756-13.377-3.164-18.208-8.339A16.138,16.138,0,0,1,239.156,225.194Zm19.5,17.879c-6.839-4.358-14.361-9.886-17.868-14.835a14.8,14.8,0,0,0,3.867,7.528C248.234,239.594,253.662,241.922,258.661,243.073Z" transform="translate(-146.321 -206.43)" fill="#2e2b6d"/>
          <path id="Path_2061" data-name="Path 2061" d="M241.4,230.41c-1.7,3.828-4.544,6.705.028,7.929s7.656-4.352,8.1-9.373C249.838,225.5,244.711,222.927,241.4,230.41Z" transform="translate(-121.678 -185.924)" fill="#dddae5"/>
          <g id="Group_341" data-name="Group 341" transform="translate(13.101 88.681)">
            <path id="Path_2062" data-name="Path 2062" d="M275.579,245.154a62.72,62.72,0,0,1,12.688-1.3h.229l0-.7h-.229a63.118,63.118,0,0,0-12.847,1.319Z" transform="translate(-275.423 -243.158)" fill="#fff"/>
          </g>
          <path id="Path_2063" data-name="Path 2063" d="M264.83,283.81c-6.831,1.617-17.143-9.005-21.155,4.921-.7,2.42,7.274,6.332,14.659,4.807a29.043,29.043,0,0,0,9.5-3.449Z" transform="translate(-153.028 -86.018)" fill="#e8e6ed"/>
          <path id="Path_2064" data-name="Path 2064" d="M223.956,342.149c16.335-3.348,30.261-14.718,41.527-23.037-4.6-13.99-12.691-33.5-20.3-41.775l8.76-30.035c9.58,7.182,32.639,62.122,31.9,75.53a5.091,5.091,0,0,1-.3,2.272c-7.748,19.349-50.273,27.607-58.8,28.755a1.464,1.464,0,0,1-1.614-1.09l-2.3-8.818A1.455,1.455,0,0,1,223.956,342.149Z" transform="translate(-112.91 -147.069)" fill="#f26174" stroke="#2e2b6d" stroke-width="1"/>
          <path id="Path_2065" data-name="Path 2065" d="M246.618,293.771l.638-.279a62.531,62.531,0,0,1-3.574-12.476l-.686.12A63.267,63.267,0,0,0,246.618,293.771Z" transform="translate(-130.673 -86.787)" fill="#fff"/>
          <path id="Path_2066" data-name="Path 2066" d="M250.932,274.1l.237-.268a224.8,224.8,0,0,1,29.517-27.473l-.418-.558a225.086,225.086,0,0,0-29.377,27.3c-1.954-1.921-14.319-14.629-12.766-26.929l-.691-.089c-1.723,13.639,13.09,27.638,13.237,27.777Z" transform="translate(-148.202 -149.749)" fill="#fff"/>
        </g>
        <g id="Group_344" data-name="Group 344" transform="translate(190.114 54.875)">
          <path id="Path_2068" data-name="Path 2068" d="M298.291,246.6H287.164v-14.91h11.127Zm-9.733-1.394H296.9V233.079h-8.339Z" transform="translate(-287.164 -224.59)" fill="#f26174"/>
          <path id="Path_2069" data-name="Path 2069" d="M303.712,251.146H292.585V229.14h11.127Zm-9.733-1.394h8.339V230.534h-8.339Z" transform="translate(-277.471 -229.14)" fill="#f26174"/>
        </g>
      </g>
    </g>
  </g>
</svg>
