<svg xmlns="http://www.w3.org/2000/svg" xmlns:xlink="http://www.w3.org/1999/xlink" width="279" height="38" viewBox="0 0 279 38">
  <defs>
    <clipPath id="clip-path">
      <rect width="279" height="38" fill="none"/>
    </clipPath>
  </defs>
  <g id="dot-pattern" clip-path="url(#clip-path)">
    <g id="Group_153" data-name="Group 153" transform="translate(-798 -1112)">
      <circle id="Ellipse_4" data-name="Ellipse 4" cx="3.5" cy="3.5" r="3.5" transform="translate(798 1112)" fill="#ebecec"/>
      <circle id="Ellipse_5" data-name="Ellipse 5" cx="3.5" cy="3.5" r="3.5" transform="translate(829 1112)" fill="#ebecec"/>
      <circle id="Ellipse_6" data-name="Ellipse 6" cx="3.5" cy="3.5" r="3.5" transform="translate(860 1112)" fill="#ebecec"/>
      <circle id="Ellipse_7" data-name="Ellipse 7" cx="3.5" cy="3.5" r="3.5" transform="translate(891 1112)" fill="#ebecec"/>
      <circle id="Ellipse_8" data-name="Ellipse 8" cx="3.5" cy="3.5" r="3.5" transform="translate(922 1112)" fill="#ebecec"/>
      <circle id="Ellipse_9" data-name="Ellipse 9" cx="3.5" cy="3.5" r="3.5" transform="translate(953 1112)" fill="#ebecec"/>
      <circle id="Ellipse_10" data-name="Ellipse 10" cx="3.5" cy="3.5" r="3.5" transform="translate(984 1112)" fill="#ebecec"/>
      <circle id="Ellipse_11" data-name="Ellipse 11" cx="3.5" cy="3.5" r="3.5" transform="translate(1015 1112)" fill="#ebecec"/>
      <circle id="Ellipse_12" data-name="Ellipse 12" cx="3.5" cy="3.5" r="3.5" transform="translate(1046 1112)" fill="#ebecec"/>
    </g>
    <g id="Group_154" data-name="Group 154" transform="translate(-781 -1088)">
      <circle id="Ellipse_4-2" data-name="Ellipse 4" cx="3.5" cy="3.5" r="3.5" transform="translate(798 1112)" fill="#ebecec"/>
      <circle id="Ellipse_5-2" data-name="Ellipse 5" cx="3.5" cy="3.5" r="3.5" transform="translate(829 1112)" fill="#ebecec"/>
      <circle id="Ellipse_6-2" data-name="Ellipse 6" cx="3.5" cy="3.5" r="3.5" transform="translate(860 1112)" fill="#ebecec"/>
      <circle id="Ellipse_7-2" data-name="Ellipse 7" cx="3.5" cy="3.5" r="3.5" transform="translate(891 1112)" fill="#ebecec"/>
      <circle id="Ellipse_8-2" data-name="Ellipse 8" cx="3.5" cy="3.5" r="3.5" transform="translate(922 1112)" fill="#ebecec"/>
      <circle id="Ellipse_9-2" data-name="Ellipse 9" cx="3.5" cy="3.5" r="3.5" transform="translate(953 1112)" fill="#ebecec"/>
      <circle id="Ellipse_10-2" data-name="Ellipse 10" cx="3.5" cy="3.5" r="3.5" transform="translate(984 1112)" fill="#ebecec"/>
      <circle id="Ellipse_11-2" data-name="Ellipse 11" cx="3.5" cy="3.5" r="3.5" transform="translate(1015 1112)" fill="#ebecec"/>
      <circle id="Ellipse_12-2" data-name="Ellipse 12" cx="3.5" cy="3.5" r="3.5" transform="translate(1046 1112)" fill="#ebecec"/>
    </g>
  </g>
</svg>
