<svg id="elem-1" xmlns="http://www.w3.org/2000/svg" width="65.408" height="91.059" viewBox="0 0 65.408 91.059">
  <rect id="Rectangle_66" data-name="Rectangle 66" width="59.375" height="85.119" transform="translate(65.408 85.119) rotate(180)" fill="#fff" opacity="0.5"/>
  <path id="Path_2114" data-name="Path 2114" d="M440.886,137.091H392.219a1.105,1.105,0,1,1,0-2.21h48.667a1.105,1.105,0,1,1,0,2.21Z" transform="translate(-385.761 -113.877)" fill="#2e2b6d"/>
  <path id="Path_2115" data-name="Path 2115" d="M451.492,132.12v84.934a1.106,1.106,0,0,1-1.105,1.105H391.008a1.108,1.108,0,0,1-1.105-1.105V142.049c0-.093.075-.15.1-.239a1.021,1.021,0,0,1,.155-.371.962.962,0,0,1,.31-.27c.075-.049.106-.137.195-.168l29.689-9.933c.035-.009.066.018.1.009a.965.965,0,0,1,.248-.062h29.689A1.106,1.106,0,0,1,451.492,132.12Zm-53.384,8.722,15.844-.234,4.124-6.445Zm51.174-7.617H421.3L415.49,142.3a1.119,1.119,0,0,1-.915.513l-22.462.327v72.809h57.168Z" transform="translate(-389.903 -127.101)" fill="#2e2b6d"/>
  <path id="Path_2116" data-name="Path 2116" d="M440.886,138.853H392.219a1.105,1.105,0,1,1,0-2.21h48.667a1.105,1.105,0,1,1,0,2.21Z" transform="translate(-385.761 -107.849)" fill="#2e2b6d"/>
  <path id="Path_2117" data-name="Path 2117" d="M440.886,140.613H392.219a1.105,1.105,0,1,1,0-2.21h48.667a1.105,1.105,0,1,1,0,2.21Z" transform="translate(-385.761 -101.829)" fill="#2e2b6d"/>
  <path id="Path_2118" data-name="Path 2118" d="M440.886,142.374H392.219a1.105,1.105,0,1,1,0-2.21h48.667a1.105,1.105,0,1,1,0,2.21Z" transform="translate(-385.761 -95.805)" fill="#2e2b6d"/>
  <path id="Path_2119" data-name="Path 2119" d="M440.886,144.135H392.219a1.105,1.105,0,1,1,0-2.21h48.667a1.105,1.105,0,1,1,0,2.21Z" transform="translate(-385.761 -89.781)" fill="#2e2b6d"/>
  <path id="Path_2120" data-name="Path 2120" d="M440.886,145.9H392.219a1.105,1.105,0,1,1,0-2.21h48.667a1.105,1.105,0,1,1,0,2.21Z" transform="translate(-385.761 -83.758)" fill="#2e2b6d"/>
  <path id="Path_2121" data-name="Path 2121" d="M440.886,147.657H392.219a1.105,1.105,0,1,1,0-2.21h48.667a1.105,1.105,0,1,1,0,2.21Z" transform="translate(-385.761 -77.734)" fill="#2e2b6d"/>
  <path id="Path_2122" data-name="Path 2122" d="M440.886,149.418H392.219a1.105,1.105,0,1,1,0-2.21h48.667a1.105,1.105,0,1,1,0,2.21Z" transform="translate(-385.761 -71.71)" fill="#2e2b6d"/>
</svg>
