<svg id="elem-2" xmlns="http://www.w3.org/2000/svg" width="65.696" height="61.12" viewBox="0 0 65.696 61.12">
  <path id="Path_2124" data-name="Path 2124" d="M500.218,172.441a28.7,28.7,0,1,1-28.7-28.7A28.7,28.7,0,0,1,500.218,172.441Z" transform="translate(-442.816 -143.742)" fill="#fff" opacity="0.5"/>
  <path id="Path_2125" data-name="Path 2125" d="M503.983,173.951a29.921,29.921,0,1,1-29.924-29.919A29.953,29.953,0,0,1,503.983,173.951Zm-25.277-27.289-3.422,26.383L501.5,177.6a27.45,27.45,0,0,0-22.8-30.94Zm22.435,33.12-27.275-4.743a1.1,1.1,0,0,1-.906-1.229l3.559-27.444c-.813-.071-1.627-.124-2.458-.124a27.709,27.709,0,1,0,27.081,33.54Z" transform="translate(-438.287 -142.75)" fill="#2e2b6d"/>
</svg>
