<svg xmlns="http://www.w3.org/2000/svg" width="657.299" height="124.676" viewBox="0 0 657.299 124.676">
  <g id="logo" transform="translate(-69 -194.521)">
    <path id="Path_3593" data-name="Path 3593" d="M63.52-24.313a26.223,26.223,0,0,1-4.044,13.241,24.406,24.406,0,0,1-10.381,8.9A35.333,35.333,0,0,1,33.831.986Q19.677.986,11.54-8.236T3.4-34.275v-3.551A43.464,43.464,0,0,1,7.077-56.295a27.839,27.839,0,0,1,10.578-12.23A29.514,29.514,0,0,1,33.634-72.84q13.069,0,21.009,6.88T63.667-47H46.407q-.2-6.559-3.3-9.419t-9.469-2.86q-6.46,0-9.469,4.833T21.009-39.009v5.08q0,11.491,2.885,16.422t9.937,4.932q5.967,0,9.124-2.811t3.354-8.926ZM88.474,0H71.8V-75.75H88.474Zm40.292,0a18.765,18.765,0,0,1-1.578-4.784Q122.6.986,114.365.986a18.932,18.932,0,0,1-12.822-4.562,14.52,14.52,0,0,1-5.277-11.466q0-8.68,6.411-13.118T121.318-32.6h5.129v-2.825q0-7.384-6.362-7.384-5.918,0-5.918,5.848H97.548a14.9,14.9,0,0,1,6.584-12.561q6.584-4.827,16.792-4.827t16.126,4.981q5.918,4.981,6.066,13.661v23.623q.1,7.348,2.269,11.244V0ZM118.359-10.85a9.271,9.271,0,0,0,5.154-1.332,8.345,8.345,0,0,0,2.934-3.008v-8.532h-4.833q-8.68,0-8.68,7.792a4.758,4.758,0,0,0,1.529,3.674A5.532,5.532,0,0,0,118.359-10.85Zm66.232-27.469-5.474-.395q-7.841,0-10.061,4.932V0h-16.62V-53.36h15.584l.542,6.855q4.192-7.841,11.688-7.841a16.207,16.207,0,0,1,4.636.592Zm27.42,18.444-4.685,4.685V0h-16.62V-75.8h16.62v40.242L209-37.776,221.529-53.36h19.924L222.762-31.415,242.686,0H223.65Zm61.744,4.882a3.84,3.84,0,0,0-2.219-3.4q-2.219-1.282-8.433-2.663a38.455,38.455,0,0,1-10.258-3.625,17.182,17.182,0,0,1-6.165-5.449,13.013,13.013,0,0,1-2.121-7.348,14.748,14.748,0,0,1,6.066-12.107q6.066-4.759,15.88-4.759,10.554,0,16.965,4.784a14.959,14.959,0,0,1,6.411,12.576H273.213q0-6.411-6.756-6.411a6.7,6.7,0,0,0-4.389,1.455,4.5,4.5,0,0,0-1.775,3.625,4.135,4.135,0,0,0,2.17,3.6,20.5,20.5,0,0,0,6.929,2.269,59.876,59.876,0,0,1,8.359,2.121q12.033,4.143,12.033,14.844,0,7.3-6.485,11.885T266.506.986a29.022,29.022,0,0,1-12.23-2.466,20.452,20.452,0,0,1-8.384-6.707,15.187,15.187,0,0,1-3.008-8.926h15.535a6.423,6.423,0,0,0,2.466,5.4,10.143,10.143,0,0,0,6.066,1.7,7.979,7.979,0,0,0,5.1-1.381A4.417,4.417,0,0,0,273.755-14.992ZM354.684-58.44H333.132V0h-17.31V-58.44H294.666V-71.8h60.018ZM382.646.986q-12.28,0-19.875-7.323T355.177-25.4v-1.381a32.77,32.77,0,0,1,3.033-14.45,22.193,22.193,0,0,1,8.852-9.691,26.724,26.724,0,0,1,13.809-3.427q11.244,0,17.754,6.978t6.51,19.455v6.46H372.092a11.979,11.979,0,0,0,3.9,7.052,11.592,11.592,0,0,0,7.792,2.564q7.891,0,12.329-5.523L403.7-8.384a21.23,21.23,0,0,1-8.8,6.83A29.748,29.748,0,0,1,382.646.986Zm-1.874-42.511q-7.3,0-8.68,9.666H388.86v-1.282a8.232,8.232,0,0,0-2.022-6.189A8.046,8.046,0,0,0,380.772-41.524Zm53.607,29.688a7.392,7.392,0,0,0,5.425-1.9,6.963,6.963,0,0,0,1.874-5.3h15.584a18.448,18.448,0,0,1-6.288,14.4Q444.686.986,434.773.986q-11.639,0-18.346-7.3t-6.707-20.22v-.69A32.5,32.5,0,0,1,412.7-41.5a21.724,21.724,0,0,1,8.606-9.518,25.66,25.66,0,0,1,13.315-3.329q10.406,0,16.521,5.77t6.115,15.633H441.678a9.123,9.123,0,0,0-2.022-6.362,6.979,6.979,0,0,0-5.425-2.219q-6.46,0-7.545,8.236a58.116,58.116,0,0,0-.345,7.2q0,8.039,1.923,11.146A6.659,6.659,0,0,0,434.379-11.836Zm46.16-35.8a16.633,16.633,0,0,1,13.611-6.707q8.828,0,13.315,5.228t4.586,15.436V0H495.383V-33.289q0-4.241-1.726-6.239t-5.869-2q-5.129,0-7.25,3.255V0h-16.62V-75.75h16.62Z" transform="translate(214.247 277.558)"/>
    <path id="Path_3594" data-name="Path 3594" d="M-456.5,0h-7.222a.285.285,0,0,1-.322-.322V-14.467a.285.285,0,0,1,.322-.322h7.222a.285.285,0,0,1,.322.322v.828a.285.285,0,0,1-.322.322h-5.635q-.23,0-.23.207v4.646q0,.207.23.207h4.922a.285.285,0,0,1,.322.322v.828a.285.285,0,0,1-.322.322h-4.922q-.23,0-.23.207v4.9q0,.207.23.207h5.635a.285.285,0,0,1,.322.322v.828A.285.285,0,0,1-456.5,0Zm3.726,0h-1.288q-.368,0-.184-.322l3.22-5.658-3.105-5.428q-.184-.322.161-.322h1.288a.547.547,0,0,1,.483.322l2.254,4.347h.092l2.139-4.347a.516.516,0,0,1,.483-.322h1.265q.391,0,.161.322L-448.822-6l3.266,5.681q.207.322-.161.322h-1.334a.522.522,0,0,1-.437-.322l-2.369-4.531h-.092l-2.369,4.531A.473.473,0,0,1-452.778,0Zm16.192-1.15V-.3q0,.3-.322.3h-3.335a3.4,3.4,0,0,1-2.5-.9,3.364,3.364,0,0,1-.909-2.507V-8.326a3.364,3.364,0,0,1,.909-2.507,3.4,3.4,0,0,1,2.5-.9h3.335a.285.285,0,0,1,.322.322v.851q0,.3-.322.3h-3.151q-1.909,0-1.909,2v4.784q0,2,1.909,2h3.151A.285.285,0,0,1-436.586-1.15ZM-426.19,0h-4.876a3.4,3.4,0,0,1-2.5-.9A3.364,3.364,0,0,1-434.47-3.4V-8.326a3.364,3.364,0,0,1,.909-2.507,3.4,3.4,0,0,1,2.5-.9h1.932a3.357,3.357,0,0,1,2.484.9,3.389,3.389,0,0,1,.9,2.507v2.921q0,.345-.322.345h-6.509q-.23,0-.23.207v1.4a1.739,1.739,0,0,0,1.932,2h4.692a.285.285,0,0,1,.322.322V-.3Q-425.868,0-426.19,0Zm-6.394-6.279h4.968a.2.2,0,0,0,.23-.23V-8.28a1.728,1.728,0,0,0-1.932-1.978h-1.564a1.728,1.728,0,0,0-1.932,1.978v1.771A.2.2,0,0,0-432.584-6.279ZM-421.452,0h-1.035a.285.285,0,0,1-.322-.322V-15.847a.285.285,0,0,1,.322-.322h1.035a.285.285,0,0,1,.322.322V-.322A.285.285,0,0,1-421.452,0Zm5.083,0H-417.4a.285.285,0,0,1-.322-.322V-15.847a.285.285,0,0,1,.322-.322h1.035a.285.285,0,0,1,.322.322V-.322A.285.285,0,0,1-416.369,0Zm11.661,0h-4.876a3.4,3.4,0,0,1-2.5-.9,3.364,3.364,0,0,1-.909-2.507V-8.326a3.364,3.364,0,0,1,.909-2.507,3.4,3.4,0,0,1,2.5-.9h1.932a3.357,3.357,0,0,1,2.484.9,3.389,3.389,0,0,1,.9,2.507v2.921q0,.345-.322.345H-411.1q-.23,0-.23.207v1.4a1.739,1.739,0,0,0,1.932,2h4.692a.285.285,0,0,1,.322.322V-.3Q-404.386,0-404.708,0ZM-411.1-6.279h4.968a.2.2,0,0,0,.23-.23V-8.28a1.728,1.728,0,0,0-1.932-1.978H-409.4a1.728,1.728,0,0,0-1.932,1.978v1.771A.2.2,0,0,0-411.1-6.279ZM-400.085,0h-1.035a.285.285,0,0,1-.322-.322V-11.408a.285.285,0,0,1,.322-.322h1.035a.285.285,0,0,1,.322.322v.9h.092a2.328,2.328,0,0,1,2.346-1.219h1.288a3.247,3.247,0,0,1,2.438.9,3.441,3.441,0,0,1,.874,2.507v8a.285.285,0,0,1-.322.322h-1.035a.285.285,0,0,1-.322-.322V-8.257a1.739,1.739,0,0,0-1.932-2h-1.288a2.148,2.148,0,0,0-1.587.552,2.115,2.115,0,0,0-.552,1.564v7.82A.285.285,0,0,1-400.085,0Zm17.25-1.15V-.3q0,.3-.322.3h-3.335a3.4,3.4,0,0,1-2.5-.9A3.364,3.364,0,0,1-389.9-3.4V-8.326a3.364,3.364,0,0,1,.909-2.507,3.4,3.4,0,0,1,2.5-.9h3.335a.285.285,0,0,1,.322.322v.851q0,.3-.322.3h-3.151q-1.909,0-1.909,2v4.784q0,2,1.909,2h3.151A.285.285,0,0,1-382.835-1.15Zm10.4,1.15h-4.876a3.4,3.4,0,0,1-2.5-.9,3.364,3.364,0,0,1-.909-2.507V-8.326a3.364,3.364,0,0,1,.909-2.507,3.4,3.4,0,0,1,2.5-.9h1.932a3.357,3.357,0,0,1,2.484.9,3.389,3.389,0,0,1,.9,2.507v2.921q0,.345-.322.345h-6.509q-.23,0-.23.207v1.4a1.739,1.739,0,0,0,1.932,2h4.692a.285.285,0,0,1,.322.322V-.3Q-372.117,0-372.439,0Zm-6.394-6.279h4.968a.2.2,0,0,0,.23-.23V-8.28a1.728,1.728,0,0,0-1.932-1.978h-1.564a1.728,1.728,0,0,0-1.932,1.978v1.771A.2.2,0,0,0-378.833-6.279ZM-359.49,0h-1.035a.285.285,0,0,1-.322-.322V-13.11q0-.207-.23-.207h-3.128q-.345,0-.345-.322v-.828q0-.322.345-.322h8.395q.345,0,.345.322v.828q0,.322-.345.322h-3.128q-.23,0-.23.207V-.322A.285.285,0,0,1-359.49,0Zm7.337,0h-1.035a.285.285,0,0,1-.322-.322V-15.847a.285.285,0,0,1,.322-.322h1.035a.285.285,0,0,1,.322.322v5.336h.092a2.328,2.328,0,0,1,2.346-1.219h1.288a3.247,3.247,0,0,1,2.438.9,3.441,3.441,0,0,1,.874,2.507v8a.285.285,0,0,1-.322.322h-1.035a.285.285,0,0,1-.322-.322V-8.257a1.739,1.739,0,0,0-1.932-2h-1.288a2.148,2.148,0,0,0-1.587.552,2.115,2.115,0,0,0-.552,1.564v7.82A.285.285,0,0,1-352.153,0Zm11.776,0h-1.035a.285.285,0,0,1-.322-.322V-11.408a.285.285,0,0,1,.322-.322h1.035a.285.285,0,0,1,.322.322v.92h.092a1.994,1.994,0,0,1,.874-.874,3.008,3.008,0,0,1,1.518-.368h.9q.3,0,.3.322v.851a.363.363,0,0,1-.069.241.241.241,0,0,1-.23.057h-1.242a2.012,2.012,0,0,0-1.587.621,2.471,2.471,0,0,0-.552,1.7V-.322A.285.285,0,0,1-340.377,0Zm11.224,0h-1.978a3.4,3.4,0,0,1-2.5-.9,3.364,3.364,0,0,1-.909-2.507V-8.326a3.364,3.364,0,0,1,.909-2.507,3.4,3.4,0,0,1,2.5-.9h1.978a3.4,3.4,0,0,1,2.5.9,3.364,3.364,0,0,1,.909,2.507V-3.4A3.364,3.364,0,0,1-326.658-.9,3.4,3.4,0,0,1-329.153,0Zm-1.794-1.472h1.61a1.728,1.728,0,0,0,1.932-1.978V-8.28a1.728,1.728,0,0,0-1.932-1.978h-1.61a1.728,1.728,0,0,0-1.932,1.978v4.83A1.728,1.728,0,0,0-330.947-1.472ZM-318.32,0h-1.288a3.247,3.247,0,0,1-2.438-.9A3.441,3.441,0,0,1-322.92-3.4v-8a.285.285,0,0,1,.322-.322h1.035a.285.285,0,0,1,.322.322v7.935q0,2,1.909,2h1.311a2.148,2.148,0,0,0,1.587-.552,2.115,2.115,0,0,0,.552-1.564v-7.82a.285.285,0,0,1,.322-.322h1.035a.285.285,0,0,1,.322.322V-.322a.285.285,0,0,1-.322.322h-1.035a.285.285,0,0,1-.322-.322v-.9h-.092A2.328,2.328,0,0,1-318.32,0Zm11.73-.621h-1.288a3.247,3.247,0,0,1-2.438-.9,3.441,3.441,0,0,1-.874-2.507v-4.3a3.364,3.364,0,0,1,.909-2.507,3.4,3.4,0,0,1,2.5-.9h4.991a.285.285,0,0,1,.322.322V0a3.372,3.372,0,0,1-.909,2.5,3.372,3.372,0,0,1-2.5.908h-4.232q-.345,0-.345-.322V2.231q0-.322.345-.322h4.025a1.728,1.728,0,0,0,1.932-1.978V-1.84h-.092A2.356,2.356,0,0,1-306.59-.621Zm2.438-3.588v-5.842q0-.207-.23-.207h-3.2a1.739,1.739,0,0,0-1.932,2v4.163a1.739,1.739,0,0,0,1.932,2h1.288a2.148,2.148,0,0,0,1.587-.552A2.115,2.115,0,0,0-304.152-4.209ZM-297.942,0h-1.035a.285.285,0,0,1-.322-.322V-15.847a.285.285,0,0,1,.322-.322h1.035a.285.285,0,0,1,.322.322v5.336h.092a2.328,2.328,0,0,1,2.346-1.219h1.288a3.247,3.247,0,0,1,2.438.9,3.441,3.441,0,0,1,.874,2.507v8A.285.285,0,0,1-290.9,0h-1.035a.285.285,0,0,1-.322-.322V-8.257a1.739,1.739,0,0,0-1.932-2h-1.288a2.148,2.148,0,0,0-1.587.552,2.115,2.115,0,0,0-.552,1.564v7.82A.285.285,0,0,1-297.942,0Zm20.1,0h-1.035a.285.285,0,0,1-.322-.322V-13.11q0-.207-.23-.207h-3.128q-.345,0-.345-.322v-.828q0-.322.345-.322h8.395q.345,0,.345.322v.828q0,.322-.345.322h-3.128q-.23,0-.23.207V-.322A.285.285,0,0,1-277.84,0Zm14.03,0h-4.876a3.4,3.4,0,0,1-2.5-.9A3.364,3.364,0,0,1-272.09-3.4V-8.326a3.364,3.364,0,0,1,.909-2.507,3.4,3.4,0,0,1,2.5-.9h1.932a3.357,3.357,0,0,1,2.484.9,3.389,3.389,0,0,1,.9,2.507v2.921q0,.345-.322.345H-270.2q-.23,0-.23.207v1.4a1.739,1.739,0,0,0,1.932,2h4.692a.285.285,0,0,1,.322.322V-.3Q-263.488,0-263.81,0ZM-270.2-6.279h4.968a.2.2,0,0,0,.23-.23V-8.28a1.728,1.728,0,0,0-1.932-1.978H-268.5a1.728,1.728,0,0,0-1.932,1.978v1.771A.2.2,0,0,0-270.2-6.279Zm16.491,5.129V-.3q0,.3-.322.3h-3.335a3.4,3.4,0,0,1-2.5-.9,3.364,3.364,0,0,1-.909-2.507V-8.326a3.364,3.364,0,0,1,.909-2.507,3.4,3.4,0,0,1,2.5-.9h3.335a.285.285,0,0,1,.322.322v.851q0,.3-.322.3h-3.151q-1.909,0-1.909,2v4.784q0,2,1.909,2h3.151A.285.285,0,0,1-253.713-1.15Zm3.7,1.15h-1.035a.285.285,0,0,1-.322-.322V-15.847a.285.285,0,0,1,.322-.322h1.035a.285.285,0,0,1,.322.322v5.336h.092a2.328,2.328,0,0,1,2.346-1.219h1.288a3.247,3.247,0,0,1,2.438.9,3.441,3.441,0,0,1,.874,2.507v8a.285.285,0,0,1-.322.322h-1.035a.285.285,0,0,1-.322-.322V-8.257a1.739,1.739,0,0,0-1.932-2h-1.288a2.148,2.148,0,0,0-1.587.552,2.115,2.115,0,0,0-.552,1.564v7.82A.285.285,0,0,1-250.01,0Zm11.776,0h-1.035a.285.285,0,0,1-.322-.322V-11.408a.285.285,0,0,1,.322-.322h1.035a.285.285,0,0,1,.322.322v.9h.092a2.328,2.328,0,0,1,2.346-1.219h1.288a3.247,3.247,0,0,1,2.438.9,3.441,3.441,0,0,1,.874,2.507v8A.285.285,0,0,1-231.2,0h-1.035a.285.285,0,0,1-.322-.322V-8.257a1.739,1.739,0,0,0-1.932-2h-1.288a2.148,2.148,0,0,0-1.587.552,2.115,2.115,0,0,0-.552,1.564v7.82A.285.285,0,0,1-238.234,0Zm15.571,0h-1.978a3.4,3.4,0,0,1-2.5-.9,3.364,3.364,0,0,1-.909-2.507V-8.326a3.364,3.364,0,0,1,.909-2.507,3.4,3.4,0,0,1,2.5-.9h1.978a3.4,3.4,0,0,1,2.5.9,3.364,3.364,0,0,1,.909,2.507V-3.4A3.364,3.364,0,0,1-220.168-.9,3.4,3.4,0,0,1-222.663,0Zm-1.794-1.472h1.61a1.728,1.728,0,0,0,1.932-1.978V-8.28a1.728,1.728,0,0,0-1.932-1.978h-1.61a1.728,1.728,0,0,0-1.932,1.978v4.83A1.728,1.728,0,0,0-224.457-1.472ZM-214.843,0h-1.035a.285.285,0,0,1-.322-.322V-15.847a.285.285,0,0,1,.322-.322h1.035a.285.285,0,0,1,.322.322V-.322A.285.285,0,0,1-214.843,0Zm8.763,0h-1.978a3.4,3.4,0,0,1-2.5-.9,3.364,3.364,0,0,1-.909-2.507V-8.326a3.364,3.364,0,0,1,.909-2.507,3.4,3.4,0,0,1,2.5-.9h1.978a3.4,3.4,0,0,1,2.5.9,3.364,3.364,0,0,1,.909,2.507V-3.4A3.364,3.364,0,0,1-203.585-.9,3.4,3.4,0,0,1-206.08,0Zm-1.794-1.472h1.61a1.728,1.728,0,0,0,1.932-1.978V-8.28a1.728,1.728,0,0,0-1.932-1.978h-1.61a1.728,1.728,0,0,0-1.932,1.978v4.83A1.728,1.728,0,0,0-207.874-1.472Zm12.581.851h-1.288a3.247,3.247,0,0,1-2.438-.9,3.441,3.441,0,0,1-.874-2.507v-4.3a3.364,3.364,0,0,1,.909-2.507,3.4,3.4,0,0,1,2.5-.9h4.991a.285.285,0,0,1,.322.322V0a3.372,3.372,0,0,1-.909,2.5,3.372,3.372,0,0,1-2.5.908h-4.232q-.345,0-.345-.322V2.231q0-.322.345-.322h4.025a1.728,1.728,0,0,0,1.932-1.978V-1.84h-.092A2.356,2.356,0,0,1-195.293-.621Zm2.438-3.588v-5.842q0-.207-.23-.207h-3.2a1.739,1.739,0,0,0-1.932,2v4.163a1.739,1.739,0,0,0,1.932,2h1.288a2.148,2.148,0,0,0,1.587-.552A2.115,2.115,0,0,0-192.855-4.209Zm5.8,7.82h-1.012a.285.285,0,0,1-.322-.322V2.438a.285.285,0,0,1,.322-.322h.575a2.384,2.384,0,0,0,2.07-.828,6.774,6.774,0,0,0,.874-1.909h-.667a.408.408,0,0,1-.391-.322l-3.381-10.465q-.092-.322.23-.322h1.1a.384.384,0,0,1,.391.322l2.967,9.476h.092l2.967-9.476a.352.352,0,0,1,.368-.322h1.058q.391,0,.276.345L-182.965-.46a8.36,8.36,0,0,1-1.46,3.013A3.239,3.239,0,0,1-187.059,3.611ZM-167.141,0h-1.2a3.4,3.4,0,0,1-2.5-.9,3.364,3.364,0,0,1-.909-2.507V-8.326a3.364,3.364,0,0,1,.909-2.507,3.4,3.4,0,0,1,2.5-.9h4.991a.285.285,0,0,1,.322.322V-.322a.285.285,0,0,1-.322.322h-1.035a.285.285,0,0,1-.322-.322v-.9h-.092A2.328,2.328,0,0,1-167.141,0Zm2.438-3.588v-6.463q0-.207-.23-.207h-3.22q-1.909,0-1.909,2v4.784q0,2,1.909,2h1.311a2.148,2.148,0,0,0,1.587-.552A2.115,2.115,0,0,0-164.7-3.588ZM-158.493,0h-1.035a.285.285,0,0,1-.322-.322V-11.408a.285.285,0,0,1,.322-.322h1.035a.285.285,0,0,1,.322.322v.9h.092a2.328,2.328,0,0,1,2.346-1.219h1.288a3.247,3.247,0,0,1,2.438.9,3.441,3.441,0,0,1,.874,2.507v8a.285.285,0,0,1-.322.322h-1.035a.285.285,0,0,1-.322-.322V-8.257a1.739,1.739,0,0,0-1.932-2h-1.288a2.148,2.148,0,0,0-1.587.552,2.115,2.115,0,0,0-.552,1.564v7.82A.285.285,0,0,1-158.493,0Zm14.858,0h-1.357a3.247,3.247,0,0,1-2.438-.9A3.441,3.441,0,0,1-148.3-3.4V-8.326a3.441,3.441,0,0,1,.874-2.507,3.247,3.247,0,0,1,2.438-.9h1.357a2.35,2.35,0,0,1,2.369,1.219h.092v-5.336q0-.322.3-.322h1.058q.3,0,.3.322V-.322q0,.322-.3.322h-1.058q-.3,0-.3-.322v-.9h-.092A2.35,2.35,0,0,1-143.635,0Zm2.461-3.588V-8.142a2.115,2.115,0,0,0-.552-1.564,2.148,2.148,0,0,0-1.587-.552h-1.4q-1.909,0-1.909,2v4.784q0,2,1.909,2h1.4a2.148,2.148,0,0,0,1.587-.552A2.115,2.115,0,0,0-141.174-3.588Zm10.741.184V-4.14a.285.285,0,0,1,.322-.322h1.035a.285.285,0,0,1,.322.322v.6a1.82,1.82,0,0,0,2.047,2.07h2.024a1.84,1.84,0,0,0,2.047-2.116V-4.37q0-1.656-2.737-2.162-1.15-.207-2.3-.483a4.084,4.084,0,0,1-1.955-1.069,2.913,2.913,0,0,1-.8-2.174v-1.127a3.372,3.372,0,0,1,.908-2.5,3.372,3.372,0,0,1,2.5-.909h2.553a3.381,3.381,0,0,1,2.484.909,3.348,3.348,0,0,1,.92,2.5v.575q0,.345-.3.345h-1.058q-.3,0-.3-.345v-.414a1.83,1.83,0,0,0-2.047-2.093h-1.955q-2.047,0-2.047,2.185v.92q0,1.173,1.541,1.61.69.184,1.518.333a16.88,16.88,0,0,1,1.667.391,8.36,8.36,0,0,1,1.53.6A2.746,2.746,0,0,1-121.406-6.2a3.418,3.418,0,0,1,.425,1.76V-3.4a3.348,3.348,0,0,1-.92,2.5A3.381,3.381,0,0,1-124.384,0h-2.645a3.381,3.381,0,0,1-2.484-.909A3.348,3.348,0,0,1-130.433-3.4ZM-116.38,0h-1.035a.285.285,0,0,1-.322-.322V-11.408a.285.285,0,0,1,.322-.322h1.035a.285.285,0,0,1,.322.322v.9h.092a2.5,2.5,0,0,1,2.438-1.219h.851a2.859,2.859,0,0,1,2.806,1.564,2.508,2.508,0,0,1,1.161-1.162,3.638,3.638,0,0,1,1.667-.4h.805a3.247,3.247,0,0,1,2.438.9,3.441,3.441,0,0,1,.874,2.507v8a.285.285,0,0,1-.322.322h-1.035a.285.285,0,0,1-.322-.322V-8.257a1.739,1.739,0,0,0-1.932-2h-.759a2.113,2.113,0,0,0-1.6.587,2.211,2.211,0,0,0-.563,1.6V-.322a.285.285,0,0,1-.322.322h-1.035a.285.285,0,0,1-.322-.322V-8.257a1.739,1.739,0,0,0-1.932-2h-.851a2.148,2.148,0,0,0-1.587.552,2.115,2.115,0,0,0-.552,1.564v7.82A.285.285,0,0,1-116.38,0ZM-95.5,0h-1.2a3.4,3.4,0,0,1-2.5-.9A3.364,3.364,0,0,1-100.1-3.4V-8.326a3.364,3.364,0,0,1,.909-2.507,3.4,3.4,0,0,1,2.5-.9H-91.7a.285.285,0,0,1,.322.322V-.322A.285.285,0,0,1-91.7,0h-1.035a.285.285,0,0,1-.322-.322v-.9h-.092A2.328,2.328,0,0,1-95.5,0Zm2.438-3.588v-6.463q0-.207-.23-.207h-3.22q-1.909,0-1.909,2v4.784q0,2,1.909,2H-95.2a2.148,2.148,0,0,0,1.587-.552A2.115,2.115,0,0,0-93.058-3.588ZM-86.848,0h-1.035a.285.285,0,0,1-.322-.322V-11.408a.285.285,0,0,1,.322-.322h1.035a.285.285,0,0,1,.322.322v.92h.092a1.994,1.994,0,0,1,.874-.874,3.008,3.008,0,0,1,1.518-.368h.9q.3,0,.3.322v.851a.363.363,0,0,1-.069.241.241.241,0,0,1-.23.057h-1.242a2.012,2.012,0,0,0-1.587.621,2.471,2.471,0,0,0-.552,1.7V-.322A.285.285,0,0,1-86.848,0Zm6.509-10.258H-81.6q-.322,0-.322-.3v-.851a.285.285,0,0,1,.322-.322h1.265q.23,0,.23-.207v-1.978a.285.285,0,0,1,.322-.322h1.035q.3,0,.3.322v1.978q0,.207.253.207h2.438q.345,0,.345.322v.851q0,.3-.345.3H-78.2q-.253,0-.253.207v6.624a1.759,1.759,0,0,0,2.024,1.955h.9q.345,0,.345.322V-.3q0,.3-.345.3h-1.1a3.546,3.546,0,0,1-2.53-.886,3.227,3.227,0,0,1-.943-2.473v-6.693Q-80.109-10.258-80.339-10.258ZM-65.32,0h-1.035a.285.285,0,0,1-.322-.322V-14.467a.285.285,0,0,1,.322-.322h5.382a3.333,3.333,0,0,1,2.484.909,3.4,3.4,0,0,1,.9,2.5v2.553a3.389,3.389,0,0,1-.9,2.507,3.357,3.357,0,0,1-2.484.9h-3.8q-.23,0-.23.207v4.9A.285.285,0,0,1-65.32,0Zm.552-6.923H-61.2A1.728,1.728,0,0,0-59.271-8.9v-2.415a1.739,1.739,0,0,0-1.932-2h-3.565q-.23,0-.23.207v5.98Q-65-6.923-64.768-6.923ZM-46.759,0h-4.876a3.4,3.4,0,0,1-2.5-.9A3.364,3.364,0,0,1-55.039-3.4V-8.326a3.364,3.364,0,0,1,.909-2.507,3.4,3.4,0,0,1,2.5-.9H-49.7a3.357,3.357,0,0,1,2.484.9,3.389,3.389,0,0,1,.9,2.507v2.921q0,.345-.322.345h-6.509q-.23,0-.23.207v1.4a1.739,1.739,0,0,0,1.932,2h4.692a.285.285,0,0,1,.322.322V-.3Q-46.437,0-46.759,0Zm-6.394-6.279h4.968a.2.2,0,0,0,.23-.23V-8.28a1.728,1.728,0,0,0-1.932-1.978h-1.564A1.728,1.728,0,0,0-53.383-8.28v1.771A.2.2,0,0,0-53.153-6.279ZM-38.341,0h-1.978a3.4,3.4,0,0,1-2.5-.9A3.364,3.364,0,0,1-43.723-3.4V-8.326a3.364,3.364,0,0,1,.909-2.507,3.4,3.4,0,0,1,2.5-.9h1.978a3.4,3.4,0,0,1,2.5.9,3.364,3.364,0,0,1,.909,2.507V-3.4A3.364,3.364,0,0,1-35.846-.9,3.4,3.4,0,0,1-38.341,0Zm-1.794-1.472h1.61A1.728,1.728,0,0,0-36.593-3.45V-8.28a1.728,1.728,0,0,0-1.932-1.978h-1.61A1.728,1.728,0,0,0-42.067-8.28v4.83A1.728,1.728,0,0,0-40.135-1.472Zm9.5,4.83h-1.035a.285.285,0,0,1-.322-.322V-11.408a.285.285,0,0,1,.322-.322h1.035a.285.285,0,0,1,.322.322v.9h.092a2.328,2.328,0,0,1,2.346-1.219h1.38a3.208,3.208,0,0,1,2.427.9,3.469,3.469,0,0,1,.863,2.507V-3.4A3.469,3.469,0,0,1-24.07-.9,3.208,3.208,0,0,1-26.5,0h-1.38a2.328,2.328,0,0,1-2.346-1.219h-.092V3.036A.285.285,0,0,1-30.636,3.358Zm2.461-4.83h1.357a1.749,1.749,0,0,0,1.955-2V-8.257a1.749,1.749,0,0,0-1.955-2h-1.357a2.148,2.148,0,0,0-1.587.552,2.115,2.115,0,0,0-.552,1.564v4.554a2.115,2.115,0,0,0,.552,1.564A2.148,2.148,0,0,0-28.175-1.472ZM-18.791,0h-1.035a.285.285,0,0,1-.322-.322V-15.847a.285.285,0,0,1,.322-.322h1.035a.285.285,0,0,1,.322.322V-.322A.285.285,0,0,1-18.791,0ZM-7.13,0h-4.876a3.4,3.4,0,0,1-2.5-.9A3.364,3.364,0,0,1-15.41-3.4V-8.326a3.364,3.364,0,0,1,.908-2.507,3.4,3.4,0,0,1,2.5-.9h1.932a3.357,3.357,0,0,1,2.484.9,3.389,3.389,0,0,1,.9,2.507v2.921q0,.345-.322.345h-6.509q-.23,0-.23.207v1.4a1.739,1.739,0,0,0,1.932,2H-7.13a.285.285,0,0,1,.322.322V-.3Q-6.808,0-7.13,0Zm-6.394-6.279h4.968a.2.2,0,0,0,.23-.23V-8.28a1.728,1.728,0,0,0-1.932-1.978h-1.564A1.728,1.728,0,0,0-13.754-8.28v1.771A.2.2,0,0,0-13.524-6.279Zm9.867-5.52v-2.668a.285.285,0,0,1,.322-.322h1.219a.285.285,0,0,1,.322.322V-11.8q0,2.185-.138,4.255T-2.116-5.2a.284.284,0,0,1-.3.276h-.621q-.3,0-.322-.345-.092-.9-.2-3.151T-3.657-11.8ZM-1.84-3.105V-.322A.285.285,0,0,1-2.162,0h-1.1q-.3,0-.3-.345v-2.76a.264.264,0,0,1,.3-.3h1.1Q-1.84-3.4-1.84-3.105Z" transform="translate(704.698 313.585)"/>
    <g id="Group_741" data-name="Group 741" transform="translate(-30)">
      <path id="Subtraction_10" data-name="Subtraction 10" d="M99.676,124.677H25a24.98,24.98,0,0,1-25-25V25A24.98,24.98,0,0,1,25,0H99.676a24.979,24.979,0,0,1,25,25V52.468H99.836v18.7h24.84V99.677a24.98,24.98,0,0,1-25,25ZM39.935,24.936a15.017,15.017,0,0,0-15,15V84.742a15.016,15.016,0,0,0,15,15H84.74a15.017,15.017,0,0,0,15-15V39.937a15.017,15.017,0,0,0-15-15Z" transform="translate(99 194.52)" fill="#ef5366"/>
      <rect id="Rectangle_136" data-name="Rectangle 136" width="16.623" height="55.065" transform="translate(153.026 229.846)" fill="#ef5366"/>
      <rect id="Rectangle_137" data-name="Rectangle 137" width="18.701" height="45.81" transform="translate(198.836 246.989) rotate(90)" fill="#ef5366"/>
    </g>
  </g>
</svg>
